<svg width="774" height="815" viewBox="0 0 774 815" fill="none" xmlns="http://www.w3.org/2000/svg">
<g clip-path="url(#clip0_467_505)">
<path fill-rule="evenodd" clip-rule="evenodd" d="M505.614 85.6758C510.859 85.6758 512.864 89.5281 517.954 89.9904C536.772 104.475 560.525 114.183 575.95 132.058C582.12 132.058 583.816 138.684 588.135 142.69C592.454 146.697 603.56 151.165 602.171 161.027C594.459 161.027 594.613 155.48 590.757 151.474C580.483 141.413 569.334 132.286 557.44 124.199C546.151 115.429 534.413 107.251 522.273 99.6983C515.486 95.6918 501.45 94.9214 505.614 85.6758Z" fill="#105DE1" fill-opacity="0.2"/>
<path fill-rule="evenodd" clip-rule="evenodd" d="M708.446 385.234C711.072 412.96 711.072 440.872 708.446 468.598C701.042 466.749 705.824 459.815 705.824 455.346C705.824 433.773 703.819 409.888 702.431 387.853C704.436 386.62 704.744 383.847 708.446 385.234Z" fill="#105DE1" fill-opacity="0.2"/>
<path fill-rule="evenodd" clip-rule="evenodd" d="M112.29 407.577C113.678 407.577 113.833 408.502 114.912 408.502C114.912 416.669 116.146 424.836 113.061 426.839C117.689 451.494 113.061 476.765 121.082 496.181C121.082 496.181 119.385 496.181 119.231 497.876C111.056 498.955 111.365 483.699 113.061 480.463C109.923 458.675 108.479 436.677 108.743 414.665C111.519 413.895 110.902 409.734 112.29 407.577Z" fill="#105DE1" fill-opacity="0.2"/>
<path fill-rule="evenodd" clip-rule="evenodd" d="M203.603 661.061C211.4 668.35 218.194 676.641 223.809 685.715C235.825 698.018 250.128 707.858 265.918 714.685C266.586 715.685 266.911 716.875 266.843 718.075C275.018 718.075 278.103 724.393 284.427 726.858C287.666 726.858 284.427 726.858 284.427 729.478C287.821 729.478 288.592 731.481 294.145 731.327C291.985 735.642 295.841 735.95 294.145 740.11C292.173 739.386 290.073 739.071 287.975 739.186C289.209 735.95 285.507 737.491 286.278 734.871C254.895 719.773 227.042 698.247 204.529 671.693C205.917 667.224 201.752 664.142 203.603 661.061Z" fill="#105DE1" fill-opacity="0.2"/>
<path fill-rule="evenodd" clip-rule="evenodd" d="M597.852 689.26C597.852 692.342 594.613 692.342 595.23 696.194C581.811 699.276 571.631 710.063 560.062 711.604C558.828 711.604 558.366 713.915 557.44 714.994C536 719.308 526.591 736.875 502.066 742.268C500.832 739.186 500.061 736.721 502.066 734.409C504.072 732.098 504.072 736.259 507.465 735.18C535.229 719 566.541 706.056 592.608 687.873C593.531 687.741 594.47 687.795 595.371 688.034C596.272 688.272 597.116 688.689 597.852 689.26Z" fill="#105DE1" fill-opacity="0.2"/>
<path fill-rule="evenodd" clip-rule="evenodd" d="M370.187 785.876C368.336 787.417 368.49 790.653 364.943 790.345C365.159 789.106 365.801 787.981 366.758 787.165C367.716 786.349 368.929 785.893 370.187 785.876Z" fill="#105DE1" fill-opacity="0.2"/>
<path fill-rule="evenodd" clip-rule="evenodd" d="M246.791 140.071C233.681 153.169 217.485 163.339 205.608 177.67C192.035 198.934 178.769 221.124 164.27 243.467V249.631C160.106 249.631 159.797 254.87 155.479 252.251C157.101 243.513 161.043 235.37 166.893 228.675C187.716 195.544 208.539 159.641 240.776 137.451C241.926 137.216 243.122 137.342 244.198 137.811C245.275 138.28 246.18 139.069 246.791 140.071Z" fill="#105DE1" fill-opacity="0.2"/>
<path fill-rule="evenodd" clip-rule="evenodd" d="M92.5468 304.026C84.1489 300.574 76.6174 295.312 70.4898 288.617C60.1554 257.798 69.5643 219.737 105.658 221.894C117.072 232.373 115.067 246.087 119.694 262.267C117.971 276.012 111.475 288.718 101.339 298.171C97.3284 299.403 92.5468 298.941 92.5468 304.026ZM74.5002 275.981C82.8294 264.732 97.4826 255.024 99.9506 240.848C101.956 238.536 106.737 238.845 107.046 234.684C107.046 233.451 105.658 232.527 105.195 231.294C96.7114 232.681 96.7114 242.543 87.611 243.467C87.611 250.864 78.3563 256.874 74.5002 263.654C79.436 265.657 83.7549 254.87 87.611 255.795C86.8398 265.503 71.4153 268.122 74.5002 275.981ZM78.819 243.467C73.4205 243.467 71.5695 251.48 73.5747 255.795C79.7445 245.008 90.5416 238.845 96.4029 227.75C93.7808 227.75 88.8449 226.671 87.611 228.674C88.228 233.297 74.9629 235.455 78.819 243.467ZM108.743 244.392C96.946 257.576 86.6035 271.99 77.8936 287.384C86.2228 292.931 88.0737 278.755 93.318 275.981C94.552 266.427 102.881 263.962 104.732 255.024C106.583 253.021 110.285 252.867 110.902 249.631C111.519 246.395 111.827 243.93 108.743 244.392Z" fill="#105DE1" fill-opacity="0.2"/>
<path fill-rule="evenodd" clip-rule="evenodd" d="M761.969 303.256C763.82 306.646 762.894 309.882 764.745 314.659C768.293 314.659 770.144 308.958 772.612 311.115C775.08 313.272 769.835 318.357 768.139 321.593C768.139 328.836 773.692 331.763 769.064 335.616C771.302 339.953 772.001 344.92 771.049 349.706C770.096 354.492 767.548 358.813 763.82 361.966C760.581 363.199 757.959 357.035 754.103 355.802C736.52 356.055 718.963 357.238 701.505 359.346C679.757 355.494 651.838 355.648 639.807 368.13C636.568 368.13 637.031 365.048 635.488 363.661C630.707 363.661 627.005 365.818 622.223 366.28C622.223 346.556 618.676 326.524 632.866 316.354C647.948 309.119 664.417 305.229 681.145 304.951C683.921 304.951 686.852 304.951 689.937 304.951C713.999 303.41 738.061 297.555 756.57 304.951C758.576 304.489 759.347 302.794 761.969 303.256ZM706.749 332.072C715.233 323.751 725.259 316.662 733.125 307.571C716.313 307.263 712.148 323.597 706.749 332.072ZM729.578 321.593C727.11 328.836 712.302 340.547 711.068 346.248C725.107 335.483 737.796 323.066 748.858 309.266C746.853 308.495 743.614 309.266 741.917 307.571C739.061 313.215 734.814 318.04 729.578 321.593ZM677.751 351.487C680.374 351.487 680.374 353.028 682.996 352.258C689.628 336.849 703.048 329.76 709.372 314.659C696.312 324.53 685.529 337.09 677.751 351.487ZM711.994 308.187C708.787 308.062 705.576 308.321 702.431 308.958C699.963 318.974 687.006 325.908 684.847 336.232C693.379 326.398 702.441 317.036 711.994 308.187ZM654.923 352.874C668.342 352.874 676.209 334.383 681.299 325.754C670.588 332.839 661.58 342.206 654.923 353.182V352.874ZM694.101 310.19C688.549 310.19 685.772 311.423 681.762 310.19C681.066 313.629 679.215 316.728 676.517 318.974C676.517 324.059 664.795 332.996 666.8 336.54C675.362 327.217 684.479 318.417 694.101 310.19ZM639.653 344.399C649.062 335.154 660.322 323.288 670.502 312.81C667.88 310.499 664.949 313.735 660.939 312.81C660.087 317.194 658.101 321.279 655.178 324.658C652.256 328.037 648.498 330.593 644.28 332.072C645.514 335.616 642.121 339.314 638.11 340.085C638.882 342.858 638.11 343.629 639.19 344.399H639.653ZM629.936 347.019C635.951 334.383 650.296 325.292 655.386 314.659C639.961 318.049 621.298 328.99 629.473 347.019H629.936ZM745.002 329.452C750.453 326.712 755.242 322.821 759.038 318.049C754.411 309.882 747.007 324.829 744.539 329.452H745.002ZM694.101 352.258C697.186 351.025 697.957 352.258 701.042 351.487C707.762 339.88 716.362 329.465 726.493 320.669C726.493 319.59 726.493 318.203 726.493 318.049C714.798 328.569 703.967 340.009 694.101 352.258ZM649.679 339.006C643.369 342.945 638.459 348.767 635.643 355.648C638.265 355.648 638.265 354.107 640.887 354.723C645.894 347.847 651.809 341.679 658.471 336.386C659.242 330.223 669.731 325.137 666.337 320.977C659.813 326.012 654.181 332.106 649.679 339.006ZM733.896 350.409C736.55 350.872 739.264 350.872 741.917 350.409C747.933 341.471 753.331 332.072 759.347 323.134C759.347 322.21 759.347 321.131 757.65 321.439C748.336 329.921 740.331 339.736 733.896 350.563V350.409ZM714.616 352.104C717.519 351.598 720.461 351.34 723.408 351.333C727.264 342.396 737.29 334.691 737.444 324.983C730.04 335.616 717.547 339.006 714.616 352.258V352.104Z" fill="#105DE1" fill-opacity="0.2"/>
<path fill-rule="evenodd" clip-rule="evenodd" d="M173.68 341.779C175.222 343.166 177.381 341.009 180.775 341.779C180.775 344.861 178.153 347.327 175.531 349.638C178.867 363.506 177.286 378.101 171.057 390.935C165.35 387.853 168.281 381.69 169.361 376.913C169.361 374.909 167.047 375.064 164.888 375.064C162.728 375.064 161.957 380.303 159.643 382.152C157.33 384.001 156.867 380.303 157.021 377.837C150.318 377.456 143.641 378.95 137.741 382.152C135.427 382.152 136.044 378.454 134.193 377.837C132.213 377.437 130.171 377.464 128.203 377.916C126.234 378.368 124.385 379.234 122.779 380.457C122.779 382.768 127.56 379.686 127.098 382.152C127.098 387.237 121.699 387.699 118.46 390.011C116.921 388.793 115.883 387.054 115.542 385.123C115.201 383.192 115.581 381.203 116.609 379.532C104.619 379.558 92.7235 381.643 81.4412 385.696C79.2818 385.696 81.4412 382.306 78.0478 383.076C65.8625 387.545 45.1937 383.076 36.7103 391.86C33.0097 390.257 28.952 389.655 24.9449 390.115C20.9378 390.575 17.1224 392.08 13.882 394.479C11.3228 392.997 9.19582 390.872 7.71225 388.316C5.70707 388.316 2.00519 391.243 1.6967 390.011C-2.00517 387.391 1.6967 384.155 2.46793 381.227C1.21154 371.893 1.52433 362.414 3.3934 353.182C10.9514 338.852 28.998 334.999 41.9546 326.062C62.4691 325.137 102.573 315.429 130.645 316.354C153.319 317.124 175.068 319.436 173.68 341.779ZM109.668 347.943C118.923 347.943 128.949 323.75 136.044 335.616C129.067 342.46 123.373 350.497 119.231 359.346C124.938 355.031 129.72 345.324 136.044 343.937C126.446 351.661 118.875 361.604 113.987 372.906C116.763 374.139 116.455 372.906 120.157 372.906C132.033 357.497 142.059 341.009 153.473 325.6C144.99 323.596 138.049 323.905 127.098 321.131C124.223 328.688 119.377 335.338 113.061 340.393C114.912 342.704 109.822 345.169 109.668 347.943ZM107.046 323.596C102.264 331.518 95.9757 338.428 88.5365 343.937C84.6804 355.494 71.1068 362.736 64.0116 374.755C72.3408 373.523 75.1172 359.346 85.9143 357.343C79.6983 363.776 74.1195 370.794 69.2559 378.3C70.7983 379.378 75.1172 378.3 78.8191 378.3C87.7653 363.815 99.3336 351.95 108.743 337.927C108.743 336.386 105.812 337.927 106.12 335.307C109.205 329.76 116.301 327.911 119.231 322.21C115.24 323.158 111.149 323.623 107.046 323.596ZM81.4412 326.37C81.4412 327.911 82.5209 328.219 82.3667 329.76C71.4857 341.031 61.7705 353.369 53.3687 366.588C51.8635 366.322 50.3137 366.654 49.0498 367.513C50.438 374.293 45.5022 372.906 43.8055 378.145C47.7887 380.393 52.4917 381.001 56.9163 379.84C66.4795 357.497 85.7601 344.861 98.2539 325.446C90.6959 323.596 87.1483 327.295 81.4412 326.062V326.37ZM60.4639 329.76C60.4639 333.458 57.379 334.999 56.9163 338.543C50.6977 346.318 45.5131 354.864 41.4918 363.969C36.0933 370.287 26.8386 376.913 24.6792 383.385C28.5353 385.388 31.4659 383.385 36.0933 383.385C42.2844 371.663 50.3025 361 59.847 351.795C61.8521 340.855 72.3408 338.389 75.2714 328.065C69.1016 327.603 65.8625 329.606 60.4639 329.452V329.76ZM157.947 329.76C147.149 343.012 138.666 358.576 128.949 372.752H136.815C146.07 360.117 156.558 348.714 164.888 335.153C163.499 333.921 163.499 331.147 162.265 329.76H157.947ZM33.1626 345.169C26.8386 354.261 20.6688 365.51 16.5042 372.444C28.5353 359.808 40.4121 347.019 51.672 333.767C41.0291 332.996 38.5612 336.848 33.1626 344.399V345.169ZM6.94102 360.579C10.6429 362.89 6.94102 366.743 6.01556 370.133C15.4245 366.743 23.4452 349.484 30.849 339.006C25.4952 340.474 20.5528 343.157 16.4062 346.846C12.2596 350.534 9.02054 355.128 6.94102 360.271V360.579ZM145.761 370.133C156.404 383.385 173.063 348.405 165.042 345.632C159.335 354.415 151.931 361.503 145.607 369.824L145.761 370.133ZM13.1108 383.385C25.5792 375.884 35.1867 364.442 40.4121 350.871C29.711 360.185 20.4577 371.039 12.9566 383.076L13.1108 383.385ZM92.5468 375.988C106.583 374.293 107.971 359.346 115.375 351.487C105.674 357.425 97.7811 365.897 92.5468 375.988ZM165.505 364.585V369.824C166.157 369.521 166.868 369.364 167.587 369.364C168.306 369.364 169.017 369.521 169.669 369.824C170.595 369.054 169.669 365.047 168.744 363.661C168.281 364.739 167.047 364.739 165.813 364.585H165.505Z" fill="#105DE1" fill-opacity="0.2"/>
<path fill-rule="evenodd" clip-rule="evenodd" d="M185.093 637.485C180.775 637.485 182.78 643.803 178.152 643.648C178.152 640.567 175.685 642.416 177.227 639.18C171.674 640.104 164.579 639.18 161.803 642.724C125.401 639.488 85.7599 652.74 51.9803 646.268C51.9803 632.708 45.502 613.754 51.9803 600.04C67.4776 588.894 85.5965 581.94 104.578 579.854C100.159 568.112 98.676 555.47 100.259 543.026C100.311 542.514 100.246 541.996 100.068 541.513C99.89 541.03 99.6045 540.594 99.2329 540.238C98.8613 539.881 98.4133 539.614 97.923 539.456C97.4326 539.299 96.9128 539.254 96.4028 539.327C99.0281 531.151 104.42 524.142 111.653 519.502C118.886 514.863 127.509 512.883 136.044 513.902C139.591 524.534 153.165 531.314 146.532 544.72C155.324 551.347 146.532 566.756 147.304 574.615C160.408 577.01 173.84 577.01 186.944 574.615C190.628 579.195 195.258 582.926 200.518 585.555C200.518 587.558 198.976 588.175 199.592 590.794C209.773 598.499 201.752 618.069 202.215 621.613C202.215 622.692 204.374 621.613 203.911 622.538C203.662 624.755 202.977 626.902 201.896 628.854C200.815 630.807 199.358 632.527 197.61 633.915C195.861 635.304 193.856 636.334 191.708 636.947C189.56 637.559 187.312 637.742 185.093 637.485ZM131.571 636.56C133.884 638.563 140.054 636.56 143.91 637.485C155.353 620.157 165.907 602.259 175.53 583.86C171.52 582.627 170.286 583.86 165.813 583.86C154.707 600.348 141.288 614.679 129.874 630.088C137.278 626.698 142.676 616.528 148.229 614.679C143.293 621.921 132.959 628.547 131.571 636.56ZM106.12 533.934C108.28 537.016 104.886 540.868 107.046 543.488C112.29 535.629 118.46 528.078 123.704 520.682C113.678 521.607 110.748 529.928 106.12 533.934ZM109.668 550.576C109.668 551.963 113.215 549.652 113.987 552.271C110.902 557.048 103.498 559.205 107.046 567.68C113.524 558.435 124.475 548.881 125.401 536.862C130.337 533.472 139.129 525.459 134.193 520.066C122.337 526.639 113.533 537.592 109.668 550.576ZM137.74 538.249C140.517 539.327 142.213 532.085 139.437 533.009C139.9 535.783 136.815 535.013 137.74 538.249ZM119.231 561.979C122.47 562.749 123.55 559.976 125.401 561.979C128.331 554.737 137.432 545.029 136.044 539.173C129.744 546.238 124.115 553.873 119.231 561.979ZM136.044 556.74C138.82 553.812 143.293 552.425 143.91 547.032H141.134C139.746 550.576 137.432 553.196 136.044 556.74ZM130.645 572.149C135.413 568.741 138.848 563.785 140.363 558.127C136.661 559.051 136.969 558.127 134.193 557.356C133.73 563.52 130.182 567.526 130.645 572.457V572.149ZM110.439 575.693C113.832 574.461 112.136 578.159 114.912 577.542C116.146 572.611 120.465 570.762 121.853 566.14C117.689 569.067 114.912 573.382 110.439 576.001V575.693ZM128.023 612.059C139.9 602.506 149.771 590.949 161.494 581.241C138.82 580.624 138.82 601.889 128.023 612.059ZM125.401 628.701C131.108 620.534 135.272 614.525 140.825 607.591C143.293 604.201 146.687 600.81 146.07 597.883C138.68 607.963 129.784 616.85 119.694 624.233C118.53 627.688 116.502 630.79 113.803 633.244C111.104 635.698 107.822 637.423 104.269 638.255C104.269 637.022 103.035 636.098 102.573 634.711C113.678 615.758 131.416 603.892 141.134 583.09C130.337 582.165 128.948 590.64 121.082 592.644C116.763 598.653 115.066 607.282 107.817 610.21C103.68 621.186 98.0769 631.553 91.1585 641.029C97.4479 642.513 104.034 642.138 110.114 639.949C116.193 637.761 121.505 633.853 125.401 628.701ZM171.674 606.666C176.61 599.732 184.477 595.571 189.258 588.329C179.695 582.627 171.828 599.886 171.057 606.666H171.674ZM70.6439 614.679C69.41 617.761 73.7288 614.679 73.4203 617.299C67.7133 625.465 60.1553 631.013 60.1553 641.799H63.7029C76.351 624.079 89.9245 607.128 101.493 588.329C102.727 588.329 101.493 586.788 100.567 586.48C84.5259 590.486 81.2868 606.512 70.0269 614.679H70.6439ZM92.5467 612.059C97.174 608.361 102.727 600.965 106.737 599.732C95.6316 615.141 81.5953 624.079 72.4949 640.875C87.9193 643.032 87.9193 621.305 100.567 616.374C102.978 609.936 106.531 603.985 111.056 598.807C109.976 596.65 108.434 600.348 107.508 597.883C111.519 594.184 114.295 592.644 116.3 588.329C102.881 586.48 97.3283 604.509 92.5467 612.059ZM53.06 620.689C55.8364 620.689 55.6822 622.229 58.3043 621.613C65.5538 611.289 76.1967 604.355 81.1326 591.873C68.4845 594.184 54.1397 601.581 54.911 612.059C54.9565 611.356 54.808 610.654 54.4817 610.029C54.1553 609.404 53.6636 608.88 53.06 608.515C52.4474 610.208 52.4474 612.062 53.06 613.754C53.06 614.987 56.4534 613.754 56.4534 615.449C52.1346 615.449 57.6874 618.685 54.7567 618.993C52.443 615.141 52.7515 616.374 53.3685 620.689H53.06ZM173.371 623.462C178.307 622.384 177.844 616.22 183.088 615.449C180.003 621.767 173.988 625.157 172.6 633.016C176.147 633.787 177.073 631.629 180.466 632.091C188.114 621.505 192.944 609.15 194.502 596.188C185.886 603.872 178.819 613.129 173.679 623.462H173.371ZM155.787 634.711C167.664 626.698 171.211 610.827 182.163 601.427C182.163 600.348 182.163 599.424 180.466 599.732C171.091 610.47 162.919 622.199 156.095 634.711H155.787ZM190.029 630.396C197.587 629.164 195.736 623.925 197.125 617.299C192.96 619.456 191.572 624.849 190.338 630.396H190.029Z" fill="#105DE1" fill-opacity="0.2"/>
<path fill-rule="evenodd" clip-rule="evenodd" d="M706.749 572.457C719.243 578.158 736.519 578.929 746.236 587.866C754.142 600.717 756.689 616.152 753.331 630.858C749.938 632.245 748.55 635.635 744.539 636.097C742.226 632.399 745.619 628.547 742.688 625.619C739.577 626.959 736.866 629.083 734.822 631.783C692.336 632.04 649.976 636.427 608.341 644.881C601.709 645.959 594.768 649.041 595.23 643.186C595.693 637.33 603.251 638.717 606.645 638.717C610.192 626.544 603.714 611.134 608.341 600.194C615.128 584.784 648.908 584.014 664.641 576.463C664.641 571.841 660.167 570.454 658.471 566.91C658.471 551.5 653.689 529.157 661.093 514.21C664.954 508.561 670.539 504.309 677.015 502.088C683.491 499.866 690.512 499.794 697.032 501.882C705.824 504.348 704.898 515.442 712.456 521.144C712.334 538.399 710.422 555.596 706.749 572.457ZM670.656 584.784C669.576 583.552 666.954 584.014 664.641 583.86C656.812 591.71 650.533 600.963 646.131 611.134C653.072 600.964 663.252 594.338 670.656 585.555V584.784ZM635.643 634.711C641.812 634.711 643.663 628.393 647.057 624.232C658.161 614.18 667.085 601.96 673.278 588.329C655.644 598.864 642.311 615.295 635.643 634.711ZM668.959 530.389C673.451 523.315 677.57 516.012 681.299 508.508C675.283 512.823 665.412 522.222 668.959 530.389ZM687.469 514.98C691.171 514.98 691.942 510.82 694.41 508.816C691.171 507.275 688.086 512.052 687.469 515.442V514.98ZM683.921 539.635C687.469 539.635 690.862 532.701 695.335 528.232C699.808 523.763 706.441 519.603 698.883 514.98C694.101 523.917 688.24 531.314 683.921 540.097V539.635ZM684.847 524.226C676.622 530.8 670.508 539.64 667.263 549.651C676.202 541.262 683.34 531.144 688.24 519.911C684.538 519.757 683.15 521.298 684.847 523.917V524.226ZM676.055 550.576C679.413 547.754 682.371 544.488 684.847 540.868C680.991 542.871 674.512 546.107 676.055 550.576ZM670.656 563.674C677.922 558.132 683.306 550.493 686.081 541.792C684.692 545.491 676.672 549.497 679.911 552.271C674.512 553.503 672.044 557.972 670.656 563.674ZM694.101 549.651C690.463 552.851 687.478 556.723 685.309 561.054C690.399 561.054 694.101 550.422 694.101 549.651ZM690.554 576.001C702.276 575.077 703.51 559.205 705.978 551.5C699.864 559.108 694.541 567.317 690.091 576.001H690.554ZM675.129 576.926C680.682 577.85 683.921 577.696 684.847 572.457C680.219 573.536 676.209 574.152 674.204 576.926H675.129ZM702.431 582.165C702.431 585.093 698.266 592.797 692.713 593.568C691.149 600.378 687.48 606.524 682.224 611.134C685.464 613.6 688.548 604.971 691.016 606.666C684.692 614.37 678.214 622.075 672.507 630.396C676.363 630.396 677.443 628.855 681.299 629.471C683.921 618.377 691.788 612.521 696.723 603.276C696.723 601.426 694.41 604.508 694.101 601.426C701.968 596.65 704.59 586.017 715.233 584.784C713.228 596.804 701.814 606.357 694.101 615.603C708.446 608.977 716.158 595.571 727.418 585.863C719.204 582.567 710.315 581.299 701.505 582.165H702.431ZM615.437 636.56H622.377C629.318 621.15 642.121 611.134 647.057 593.568C650.296 592.643 653.843 587.558 653.226 585.709C632.866 590.486 626.079 608.823 617.133 625.157C627.776 618.223 633.483 606.357 643.509 598.807C635.488 612.983 620.835 622.383 615.437 636.56ZM673.278 602.351C678.398 598.752 682.881 594.326 686.543 589.253C678.677 590.024 677.134 597.266 673.278 602.351ZM730.503 590.024C724.95 600.964 711.531 609.748 709.526 621.613C719.974 613.071 729.12 603.052 736.673 591.873C735.895 591.054 734.917 590.452 733.834 590.128C732.752 589.803 731.604 589.767 730.503 590.024ZM614.511 600.964C614.511 606.203 612.043 612.984 614.511 617.606C620.933 610.008 626.517 601.743 631.169 592.951C623.149 592.797 620.218 598.191 614.511 600.964ZM653.226 631.783H663.252C665.412 616.374 680.528 607.59 687.006 594.184C674.231 605.272 662.885 617.901 653.226 631.783ZM728.652 613.446C735.285 610.364 738.061 603.43 745.311 601.118C739.449 593.414 732.508 608.515 728.652 613.754V613.446ZM691.788 623.924C691.788 625.157 693.022 625.619 692.713 627.468C695.798 627.468 696.878 625.927 699.654 625.773C700.734 615.449 711.068 609.593 711.994 602.043L691.788 623.924ZM738.061 617.76C742.226 616.528 751.326 611.443 745.928 606.357C743.427 610.488 740.59 614.405 737.444 618.069L738.061 617.76Z" fill="#105DE1" fill-opacity="0.2"/>
<path fill-rule="evenodd" clip-rule="evenodd" d="M423.093 665.53C423.694 666.271 424.022 667.196 424.022 668.149C424.022 669.103 423.694 670.028 423.093 670.769C438.518 693.112 420.162 727.167 404.584 740.111C421.705 738.878 438.363 745.504 450.857 737.491C451.426 740.068 452.647 742.456 454.405 744.426C473.84 742.114 482.786 756.907 486.025 771.7C488.493 773.549 491.115 770.313 492.966 773.395C494.817 776.477 490.035 779.559 488.647 783.103C489.661 786.508 490.232 790.03 490.344 793.581C478.313 795.43 474.919 805.447 469.366 814.692C464.893 812.227 467.053 807.45 470.292 804.984C470.292 802.211 465.356 804.984 466.744 800.67C464.419 800.243 462.029 800.325 459.739 800.911C457.449 801.496 455.314 802.57 453.479 804.06C450.703 804.06 452.4 801.286 449.932 801.44C418.311 803.443 380.059 807.296 345.508 812.843C343.657 809.607 340.109 812.843 337.641 811.148C333.785 813.768 317.281 818.699 315.584 810.223C316.356 807.45 319.286 806.833 322.68 806.679C331.78 786.493 324.685 766.153 340.264 755.058C354.561 747.382 370.341 742.863 386.537 741.806C386.537 734.409 381.138 732.56 376.048 730.403C377.591 723.161 372.809 720.387 369.879 714.994C369.107 701.588 365.251 684.175 373.426 673.851C376.511 673.851 377.591 674.775 379.442 675.546C384.069 663.681 393.941 651.969 408.44 655.36C414.147 657.209 416.461 663.526 423.093 665.53ZM380.984 714.686C395.373 701.715 407.016 685.996 415.227 668.457C413.63 666.613 411.455 665.364 409.057 664.913C399.577 679.132 388.672 692.35 376.511 704.361C386.074 707.443 388.388 692.034 395.021 692.188C391.627 699.893 380.676 704.053 380.984 714.686ZM380.059 693.421C388.851 684.945 401.19 674.467 399.339 662.602C387.771 666.917 382.835 681.864 380.059 693.421ZM402.887 702.204C401.653 704.669 396.409 703.283 395.792 706.673C395.175 710.063 397.334 705.44 399.339 706.673C397.18 712.374 395.021 718.076 388.851 719.771C388.851 724.085 386.537 727.167 391.473 727.629C400.603 716.177 408.561 703.84 415.227 690.801C417.386 687.103 422.322 684.945 420.471 678.474C419.237 678.474 418.928 677.087 417.849 676.778C413.838 685.254 404.584 693.421 402.887 701.433V702.204ZM401.036 724.239C414.147 719 418.928 705.286 423.864 691.88C422.63 691.88 422.63 690.647 421.242 690.955C416.461 703.128 404.429 709.755 401.036 724.239ZM397.488 728.708C400.265 728.708 399.956 726.397 401.036 725.164H397.488C397.643 727.475 396.254 726.859 397.643 728.708H397.488ZM393.941 747.045C394.275 750.045 393.482 753.063 391.715 755.512C389.948 757.961 387.333 759.666 384.378 760.297C376.511 775.706 360.778 783.411 356.151 798.05C358.927 796.817 360.624 790.037 364.172 792.657C361.549 796.355 357.848 798.666 357.076 804.06C360.624 804.06 362.012 804.06 364.943 804.06C378.054 784.336 394.866 768.464 407.206 747.816C403.35 743.809 399.956 747.353 394.095 747.045H393.941ZM422.013 747.97C407.514 746.121 402.733 767.385 392.244 775.09C394.866 777.402 384.686 783.103 388.696 783.873C399.802 771.854 410.599 759.527 422.168 747.97H422.013ZM412.45 758.448C408.286 768.002 397.026 773.857 394.866 783.103C383.452 784.336 385.149 798.512 376.357 802.365H381.601C395.201 788.805 407.302 773.823 417.694 757.678C415.072 756.907 415.227 759.064 412.604 758.448H412.45ZM430.805 747.045C423.247 759.064 415.381 771.084 407.206 782.178C418.509 772.31 428.236 760.774 436.05 747.97C433.582 748.586 433.736 746.429 430.96 747.045H430.805ZM372.038 749.665C363.4 767.077 345.508 775.244 336.87 792.657C340.264 795.276 336.87 797.125 336.87 801.44C339.184 801.44 339.492 804.06 342.115 804.06C358.375 786.723 373.423 768.291 387.154 748.894C383.452 747.199 378.054 750.743 372.192 749.665H372.038ZM431.885 772.471C439.906 765.228 447.309 757.986 456.41 751.514C442.065 745.812 436.204 765.536 431.885 772.471ZM462.734 757.061C455.022 769.543 444.225 778.942 437.284 792.194C450.857 783.411 461.037 771.392 474.148 762.3C470.909 757.369 464.276 751.052 458.724 751.822C460.601 752.941 462.022 754.688 462.734 756.753V757.061ZM336.099 785.877C346.353 776.586 354.459 765.175 359.853 752.438C347.513 758.14 329.467 766.615 336.099 785.877ZM416.923 798.204C420.496 798.148 424.036 797.524 427.412 796.355C436.166 782.853 445.856 769.981 456.41 757.832C456.41 756.753 456.41 755.674 454.713 755.983C438.739 766.702 425.612 781.139 416.461 798.05L416.923 798.204ZM420.471 773.549C425.252 772.162 426.024 766.923 429.263 763.841C425.314 765.914 422.207 769.29 420.471 773.395V773.549ZM441.602 795.43C459.032 798.512 463.351 775.861 473.994 766.461C461.111 773.434 450.023 783.297 441.602 795.276V795.43ZM463.505 791.116C464.739 789.113 465.819 786.955 469.675 787.572C468.904 790.345 465.048 790.037 465.202 793.735C469.366 793.735 471.372 792.195 475.845 792.811C478.867 790.26 480.793 786.646 481.223 782.717C481.654 778.788 480.557 774.844 478.158 771.7C473.223 771.7 474.919 778.326 469.366 777.864C470.292 784.336 462.734 785.877 463.505 790.962V791.116ZM397.643 798.975C401.807 798.975 403.658 798.05 407.36 798.204C406.28 789.421 422.013 781.562 419.545 774.474C411.37 781.562 405.355 790.962 397.643 798.821V798.975Z" fill="#105DE1" fill-opacity="0.2"/>
<path fill-rule="evenodd" clip-rule="evenodd" d="M375.74 -0.000157118C400.111 -4.93115 406.589 25.7334 407.36 47.4606C407.36 65.6436 392.707 87.5249 381.756 87.8331C370.495 84.3009 360.485 77.616 352.912 68.5714C349.708 59.7062 348.291 50.2957 348.741 40.8812C349.191 31.4667 351.499 22.234 355.534 13.7142C360.478 6.94478 367.619 2.09794 375.74 -0.000157118ZM385.612 15.4092C387.617 15.4092 389.005 15.4092 389.16 17.1042C386.027 21.4206 383.291 26.0107 380.985 30.8185C387.309 29.2776 386.692 18.0288 395.021 21.1106C393.016 15.5633 391.011 10.0159 384.532 8.93726C384.686 10.4782 385.612 11.7109 385.612 15.4092ZM364.635 20.6484C369.725 20.6484 369.262 14.1764 371.576 10.9405C369.583 11.4851 367.812 12.6405 366.511 14.2438C365.211 15.8472 364.447 17.8177 364.326 19.8779L364.635 20.6484ZM371.576 20.6484C374.044 20.6484 369.416 23.8843 372.501 24.1925C374.815 20.9565 379.751 20.3402 380.368 15.4092C378.671 15.4092 378.517 14.3305 376.82 14.4846C375.624 16.8517 373.669 18.7504 371.267 19.8779L371.576 20.6484ZM380.368 49.6179C384.532 41.2969 401.345 33.1299 395.792 23.2679C392.707 33.284 380.985 39.4478 380.059 48.8475L380.368 49.6179ZM363.709 48.6934C369.108 46.382 374.661 35.2872 372.501 31.1267C368.645 35.5954 361.55 40.0641 363.401 47.9229L363.709 48.6934ZM391.782 68.8796C395.021 68.8796 396.563 59.634 393.633 59.1717C392.553 61.6372 389.16 64.8732 391.473 68.1091L391.782 68.8796Z" fill="#105DE1" fill-opacity="0.2"/>
<path fill-rule="evenodd" clip-rule="evenodd" d="M467.824 123.275C467.824 128.822 460.883 131.442 464.431 138.684C458.878 136.681 459.958 145.002 456.41 147.313C451.937 143.615 451.937 141.92 447.31 138.684C440.523 141.15 430.034 136.835 424.327 143.153C420.933 141.818 417.278 141.277 413.642 141.57C410.006 141.864 406.486 142.985 403.35 144.848C384.532 138.684 362.321 147.159 346.28 149.163C341.035 149.163 335.945 149.163 330.855 150.087C321.351 153.621 311.203 155.091 301.086 154.402C301.086 151.32 297.847 150.704 295.842 149.163C296.199 143.79 294.965 138.43 292.294 133.753C295.842 103.859 323.143 94.3053 355.534 90.7612C360.624 90.7612 366.023 91.9939 370.959 90.7612C373.735 90.7612 375.74 88.4498 378.054 88.1416C390.411 88.4442 402.731 89.6286 414.918 91.6858C424.87 90.7465 434.907 91.3179 444.688 93.3808C456.719 100.469 460.729 115.416 467.824 123.275ZM378.362 98.62C378.362 110.947 368.645 114.029 364.326 123.275C373.461 115.492 381.688 106.704 388.851 97.079C385.36 96.2406 381.694 96.5099 378.362 97.8495V98.62ZM339.339 143.615C348.439 140.687 350.29 130.517 354.763 123.429C358.668 120.489 361.706 116.549 363.555 112.026C360.47 110.485 359.699 115.724 358.311 112.797C362.475 107.403 368.182 103.397 372.347 97.3872C355.952 97.8891 339.683 100.425 323.914 104.938C322.217 113.259 316.202 117.111 312.5 123.429C321.909 119.268 325.148 109.098 333.477 104.013C335.044 104.735 336.302 105.992 337.025 107.557C337.025 114.646 328.079 120.963 330.855 125.124C337.959 115.638 346.554 107.364 356.305 100.623C356.305 101.856 358.311 101.548 359.082 102.318C354.593 113.243 347.868 123.111 339.339 131.288C346.588 129.593 351.215 117.882 358.773 113.721C353.683 124.199 342.115 133.137 339.339 143.615ZM391.165 109.252C394.867 106.016 402.116 101.548 402.579 97.8495C402.579 99.2363 398.414 97.8495 397.335 97.8495C397.026 102.626 392.707 104.321 391.473 109.252H391.165ZM408.749 110.177C415.073 108.328 417.849 102.935 421.859 98.774C413.068 97.3872 412.296 103.859 409.057 110.177H408.749ZM428.029 100.623C429.109 106.941 423.71 112.642 421.088 118.036C427.674 113.306 433.589 107.708 438.672 101.394C435.419 99.9538 431.768 99.6816 428.338 100.623H428.029ZM401.036 106.633C399.803 106.633 399.34 105.4 397.489 106.633C399.031 111.41 392.399 111.41 394.867 114.492C392.444 115.747 390.123 117.19 387.926 118.806C387.926 125.894 378.208 130.055 377.283 138.992C380.522 138.992 382.064 137.451 383.453 138.992C390.548 126.049 402.27 117.419 407.206 102.164C401.808 99.5445 401.036 104.784 401.036 106.633ZM416.461 136.527C431.885 134.216 433.119 113.875 440.215 105.708H438.364C431.885 117.265 416.461 124.199 415.227 136.527H416.461ZM363.401 129.439C361.704 132.058 357.539 137.914 359.082 140.842C359.082 138.992 362.167 140.842 363.401 140.071C370.033 129.13 377.746 119.268 384.532 109.252C384.532 108.174 384.532 107.095 382.681 107.403C375.831 114.367 369.393 121.725 363.401 129.439ZM436.204 119.885C436.204 119.885 437.284 119.885 437.13 121.58C441.757 117.419 448.852 115.724 449.469 107.557C448.146 106.703 446.55 106.373 444.996 106.633C443.876 112.013 440.728 116.758 436.204 119.885ZM395.021 137.451C412.142 136.527 411.371 118.036 419.546 107.866C418.544 108.195 417.463 108.195 416.461 107.866C410.754 118.652 399.494 124.508 395.021 137.451ZM301.086 133.907C305.25 125.586 310.803 118.498 315.122 110.177C310.413 111.925 306.449 115.236 303.894 119.557C301.338 123.877 300.347 128.944 301.086 133.907ZM304.634 147.005C315.276 141.304 320.058 125.586 325.611 117.265C317.499 126.342 310.461 136.321 304.634 147.005ZM447.31 129.439C450.395 127.744 451.937 129.439 452.554 132.058C458.107 130.671 458.261 124.816 455.948 119.885C451.012 120.501 450.241 125.894 447.31 129.439ZM435.742 133.907C436.821 129.13 446.693 124.508 442.837 120.809C441.911 125.432 434.353 128.668 436.204 133.907H435.742ZM318.978 146.081C331.164 146.081 334.403 130.671 336.562 124.199C331.009 131.442 322.526 136.065 319.441 146.081H318.978Z" fill="#105DE1" fill-opacity="0.2"/>
<path fill-rule="evenodd" clip-rule="evenodd" d="M694.101 200.322C697.514 199.388 701.089 199.207 704.578 199.792C708.067 200.378 711.387 201.715 714.307 203.712C715.541 210.8 723.099 214.961 724.95 221.278C726.801 227.596 722.791 238.075 728.344 245.933C726.931 249.084 726.201 252.497 726.201 255.949C726.201 259.402 726.931 262.815 728.344 265.965C720.94 276.752 716.004 290.004 703.819 295.86C695.868 295.384 688.098 293.287 680.99 289.696C671.205 275.143 665.847 258.07 665.566 240.54C676.055 228.367 674.821 204.02 694.101 200.322ZM698.574 208.18C698.574 207.102 698.574 206.023 696.723 206.331C679.756 208.643 676.055 228.983 673.895 243.16C683.304 232.681 690.554 220.046 698.883 208.489L698.574 208.18ZM692.404 223.59C692.404 230.678 686.389 233.452 683.613 240.232C696.023 233.87 706.632 224.49 714.461 212.957C705.978 200.322 700.579 220.97 692.713 223.436L692.404 223.59ZM705.515 241.002C711.222 238.229 714.307 229.137 720.94 230.524C720.592 227.546 719.973 224.606 719.089 221.741C713.232 226.986 708.689 233.53 705.824 240.848L705.515 241.002ZM675.746 256.412C675.746 260.264 676.826 261.651 676.517 265.195C686.13 255.823 694.431 245.198 701.196 233.606C692.109 240.162 683.688 247.594 676.055 255.795L675.746 256.412ZM682.07 277.368C685.463 279.372 688.394 274.749 689.165 271.359C695.542 265.668 700.776 258.818 704.59 251.172C708.809 248.328 712.169 244.384 714.307 239.77C699.9 248.637 688.628 261.783 682.07 277.368ZM704.898 261.959C707.928 258.716 711.937 256.551 716.312 255.795C716.312 254.1 715.233 254.1 714.616 253.176C717.701 250.094 721.865 248.091 721.711 241.773C715.279 248.11 709.635 255.198 704.898 262.884V261.959ZM692.713 285.535C699.037 281.837 703.356 272.437 708.137 266.274C709.988 263.5 715.078 262.575 711.531 259.339C704.754 268.02 698.472 277.075 692.713 286.46V285.535ZM713.844 271.513C715.417 271.073 716.826 270.182 717.895 268.949C718.965 267.716 719.648 266.196 719.86 264.579C715.85 265.811 714.616 268.893 713.844 272.437V271.513Z" fill="#105DE1" fill-opacity="0.2"/>
</g>
<defs>
<clipPath id="clip0_467_505">
<rect width="774" height="815" fill="white"/>
</clipPath>
</defs>
</svg>
