<svg width="196" height="124" viewBox="0 0 196 124" fill="none" xmlns="http://www.w3.org/2000/svg">
<g clip-path="url(#clip0_467_384)">
<path fill-rule="evenodd" clip-rule="evenodd" d="M174.222 62.999C174.824 56.754 185.061 54.9055 184.81 61.4002C184.559 66.4961 177.183 66.1964 174.222 62.999ZM180.294 61.0006C180.946 61.0006 180.645 62.2496 181.95 61.7999V60.2012C181.628 60.1797 181.306 60.2421 181.015 60.3822C180.725 60.5224 180.476 60.7355 180.294 61.0006Z" fill="#105DE1" fill-opacity="0.2"/>
<path fill-rule="evenodd" clip-rule="evenodd" d="M178.688 48.0115C177.183 46.8624 177.584 44.1147 177.484 40.7674C181.398 33.6731 190.129 29.3266 189.276 18.885C190.169 17.1143 190.489 15.1118 190.192 13.1527C189.896 11.1936 188.997 9.374 187.62 7.94382C185.914 8.49338 185.111 6.49499 183.556 6.34511C182.236 6.2191 180.906 6.39727 179.667 6.86581C178.428 7.33435 177.314 8.08067 176.411 9.04692C175.509 10.0132 174.842 11.1734 174.462 12.4376C174.083 13.7019 174.001 15.0361 174.222 16.3371C174.975 19.0349 177.986 18.935 180.294 20.7835C180.896 25.3298 177.534 25.7794 175.276 27.2782C162.029 20.9333 170.258 -4.44618 188.273 0.549787C198.308 5.54576 197.907 19.7343 192.789 29.7263C188.273 34.972 181.348 37.5699 180.645 46.4128C180.645 46.7625 180.645 46.8125 181.047 46.8125C180.645 46.7126 179.742 47.462 178.688 48.0115Z" fill="#105DE1" fill-opacity="0.2"/>
<path fill-rule="evenodd" clip-rule="evenodd" d="M44.459 54.9556C50.1794 53.8565 57.8568 53.6067 64.5307 52.2578C67.3909 51.7082 70.2511 49.51 72.3586 52.008C72.9106 53.5068 70.3515 52.9572 70.7529 54.3561C64.5805 54.1251 58.4276 55.1801 52.6884 57.4536C52.9393 59.2521 52.3371 61.5503 54.6955 61.2006C52.588 62.3996 53.0898 66.1965 54.6955 67.7952C62.0217 68.095 69.3981 60.5511 73.2619 65.4471C68.7959 67.7952 62.7744 67.7952 55.7493 71.2924C57.2142 75.5204 58.2235 79.8915 58.7601 84.3319C66.9895 84.3319 72.5593 80.1853 79.3335 79.3359C79.3335 79.9854 79.3335 80.8847 80.0862 80.8847C79.735 82.1337 78.0791 82.5334 76.3228 82.8331C75.9715 84.182 76.9751 84.5317 76.3228 86.1804C65.8353 86.8299 57.054 95.6228 50.5307 89.9774C44.5593 77.2876 46.9178 65.9967 44.459 54.9556ZM47.9214 74.5398C49.2438 79.2713 50.9211 83.8972 52.9393 88.3787C54.1462 88.8648 55.4957 88.8648 56.7027 88.3787C55.1973 81.8839 55.4482 73.8404 50.5808 69.7437C52.1364 65.3472 49.6776 63.4487 49.0253 57.6534H47.821C47.6705 63.3988 49.3766 69.9435 47.9214 74.5898V74.5398Z" fill="#105DE1" fill-opacity="0.2"/>
<path fill-rule="evenodd" clip-rule="evenodd" d="M113.455 96.0725C114.247 95.5599 115.162 95.2666 116.106 95.2227C117.049 95.1788 117.988 95.3859 118.824 95.8227C119.376 95.5229 118.824 95.423 118.322 95.5229C121.221 93.4235 124.789 92.4467 128.358 92.7752C134.931 90.0312 142.111 89.0494 149.183 89.9274C144.165 95.2731 131.068 91.9758 122.788 97.1217C120.48 94.0741 118.021 97.6212 114.659 97.871C114.373 97.2028 113.964 96.593 113.455 96.0725Z" fill="#105DE1" fill-opacity="0.2"/>
<path fill-rule="evenodd" clip-rule="evenodd" d="M112.201 95.8726C112.201 96.4721 113.104 96.6219 113.455 98.1207C87.7131 102.617 61.5697 110.011 32.3152 115.557C26.6042 117.737 20.7101 119.409 14.7023 120.553C13.498 121.652 14.7023 122.701 14.7023 123.9C13.9496 123.9 11.1396 122.051 12.946 121.352C12.946 120.503 11.4908 121.352 10.8887 121.352L10.0356 119.054C23.8851 116.156 35.1252 112.959 47.2184 110.161C48.5231 110.161 46.5159 110.96 46.6665 111.51C47.9209 112.359 47.2686 110.161 48.4227 109.911L90.9245 100.419C90.9245 100.769 90.5733 100.869 90.6736 101.268C91.8779 99.3697 100.208 99.5196 99.7059 98.7203C104.373 98.0708 107.283 96.7718 112.201 95.8726ZM73.7632 104.915C72.5088 105.265 71.9568 104.566 70.5016 105.165C70.2507 106.714 73.7131 105.615 73.7632 104.915Z" fill="#105DE1" fill-opacity="0.2"/>
<path fill-rule="evenodd" clip-rule="evenodd" d="M145.871 31.1248C144.505 31.6793 143.261 32.4939 142.208 33.5229C139.849 31.6743 137.842 34.1723 135.534 35.2215C138.444 44.1143 133.125 53.5067 140.552 59.402C140.953 64.398 134.079 63.7984 130.516 63.3988C130.516 62.4495 130.165 61.5503 129.964 60.601C130.968 60.601 130.717 59.7517 131.921 59.8516C127.957 49.8597 126.903 44.1143 124.093 34.8718C121.632 35.1493 119.246 35.8956 117.068 37.07C116.817 38.4689 118.423 37.07 118.172 38.5188C117.921 39.9677 113.154 37.3698 111.398 39.8677C111.253 39.6076 111.052 39.3829 110.809 39.21C110.566 39.0372 110.287 38.9205 109.993 38.8685C109.479 36.8523 109.786 34.7158 110.846 32.9233C111.623 32.6892 112.458 32.7305 113.208 33.0402C113.958 33.3499 114.578 33.9089 114.96 34.622C122.738 31.6244 131.419 31.6244 139.147 29.0764C139.849 28.5269 139.699 27.3778 139.147 26.1288C142.91 23.7807 142.107 29.1264 145.018 28.7267C144.964 29.1649 145.012 29.6097 145.16 30.0259C145.308 30.4421 145.552 30.8183 145.871 31.1248ZM128.308 34.572C128.81 38.6687 130.265 44.8137 130.817 47.2618C130.817 46.962 130.817 46.5124 131.068 46.4125C131.345 48.4329 131.868 50.4124 132.624 52.3077C135.183 50.9088 133.276 47.6115 133.376 45.5631C133.759 41.5475 132.826 37.5164 130.717 34.0724C129.763 34.1723 128.91 33.6228 128.308 34.572Z" fill="#105DE1" fill-opacity="0.2"/>
<path fill-rule="evenodd" clip-rule="evenodd" d="M5.01792 57.3037C5.36918 57.3037 5.51971 57.6534 5.92115 57.3037C7.97849 57.3037 8.27957 60.3513 9.33333 61.9999C17.7634 64.5978 31.4122 59.452 33.2186 71.9919C31.8638 75.1393 28.2007 76.6881 25.9427 79.1861C31.3118 79.5857 43.3548 76.1385 46.4158 82.2336C46.1147 81.6341 46.6667 84.5318 46.7168 83.8323C46.3656 89.7775 36.681 93.2247 28.9534 96.7719C22.7312 99.7195 16.7097 104.066 11.2903 103.916C11.2903 101.568 9.58423 101.818 8.43011 102.018C6.47312 89.9274 3.26165 77.4375 0 64.9475C1.80461 63.9209 3.84284 63.3706 5.92115 63.3488C6.22222 61.6002 4.46595 58.7525 5.01792 57.3037ZM12.595 97.9709C14.3011 93.8742 12.0932 91.1764 12.0932 86.8799C11.0394 86.8799 10.0358 87.2296 9.8853 86.0805C8.88172 83.8323 11.3907 83.8823 11.1398 82.1337C9.93548 78.6365 9.1828 72.1417 7.37634 67.1458C6.47312 67.5454 4.41577 67.1458 4.26523 68.145C5.66621 78.4294 8.50368 88.4684 12.6953 97.9709H12.595ZM13.6989 82.4834C19.9572 80.3442 25.5918 76.7072 30.1075 71.8919C27.9498 62.8992 18.1649 66.3964 10.8889 66.896C11.2903 72.5914 13.9498 78.2368 13.7993 82.4834H13.6989ZM14.9032 86.3303C15.0877 90.8357 16.0908 95.2705 17.8638 99.4197C26.8459 94.4238 38.7885 91.7759 42.9534 83.7824C35.828 78.2368 23.9355 82.8831 15.0538 86.3303H14.9032Z" fill="#105DE1" fill-opacity="0.2"/>
<path fill-rule="evenodd" clip-rule="evenodd" d="M107.785 41.8664C106.129 42.9156 106.882 45.6134 104.523 46.2129C102.516 45.7633 103.018 43.8648 102.115 42.5659C96.0431 37.9196 80.9391 52.5578 88.5162 55.5054C93.2176 56.5935 98.0446 57.0472 102.867 56.8543C106.637 56.3502 110.473 56.8859 113.957 58.4031C114.86 61.5505 116.265 64.4482 117.018 67.6956C113.756 74.7399 96.9463 81.9341 88.5664 76.9881C88.1649 73.7407 92.2294 75.3394 93.233 75.2395C95.6416 73.5409 99.2043 72.5916 101.914 71.0928C100.82 67.7363 100.015 64.2934 99.5054 60.8012C90.1219 62.4998 83.0466 59.8519 81.0897 51.6086C78.8316 41.6666 101.964 33.8729 107.785 41.8664ZM84 49.4103C85.7563 49.4103 85.8567 47.8616 85.9069 46.5127C84.0502 46.6626 83.9499 47.9615 84 49.4103ZM105.226 64.3983C103.57 64.3983 104.724 62.3499 103.068 61.9502C103.068 63.6489 103.068 66.9462 105.125 68.1452C106.882 65.6472 110.143 64.2484 110.143 60.5514C107.98 59.9168 105.712 59.7131 103.47 59.9518C104.072 61.2008 105.728 63.499 105.376 64.648L105.226 64.3983ZM113.355 63.6489C110.008 66.2317 107.282 69.5259 105.376 73.2911C110.394 71.6424 116.918 68.1952 113.355 63.8987V63.6489ZM100.358 74.9397C101.362 74.9397 102.366 75.1895 102.215 73.7907C101.061 74.0405 100.358 74.2403 100.358 74.9397Z" fill="#105DE1" fill-opacity="0.2"/>
<path fill-rule="evenodd" clip-rule="evenodd" d="M110.846 108.113C111.799 110.111 108.839 109.512 108.939 110.961C88.8673 112.759 70.6021 120.103 53.7419 123.75C52.6379 119.854 58.4085 120.103 60.7669 119.504C71.2042 117.006 83.1469 112.859 92.6307 110.811C96.9963 109.862 99.9067 109.662 103.419 108.713C105.677 108.163 108.337 106.564 110.846 108.113Z" fill="#105DE1" fill-opacity="0.2"/>
</g>
<defs>
<clipPath id="clip0_467_384">
<rect width="196" height="124" fill="white"/>
</clipPath>
</defs>
</svg>
