<svg width="241" height="213" viewBox="0 0 241 213" fill="none" xmlns="http://www.w3.org/2000/svg">
<g clip-path="url(#clip0_467_372)">
<path fill-rule="evenodd" clip-rule="evenodd" d="M54.3241 96.9384C55.7495 106.13 40.0172 103.753 43.2375 94.5083C45.1381 89.0142 52.1067 93.4517 54.3241 96.9384ZM49.6255 99.5797C50.7869 99.5797 52.054 98.2062 50.4702 97.7836C50.1257 98.3506 49.8426 98.9527 49.6255 99.5797Z" fill="#105DE1"/>
<path fill-rule="evenodd" clip-rule="evenodd" d="M69.0534 139.781C66.9416 139.781 67.5752 139.306 66.9944 138.302C66.4137 137.298 66.5193 139.306 65.4107 138.725C60.1314 129.11 54.1657 119.918 49.5728 109.67C51.051 107.345 52.7403 103.859 56.5942 105.655C61.9185 113.725 66.1939 122.441 69.3173 131.593C70.7129 133.19 71.4984 135.23 71.5346 137.351C71.0595 138.619 69.0534 138.355 69.0534 139.781ZM65.9386 133.442C66.4137 133.442 67.5224 133.97 67.5224 133.442C67.5224 132.914 67.1 131.487 66.2025 131.117L65.9386 133.442Z" fill="#105DE1"/>
<path fill-rule="evenodd" clip-rule="evenodd" d="M224.846 188.858C224.159 190.337 225.268 190.126 224.582 191.341C225.275 192.721 225.587 194.262 225.485 195.804C225.383 197.346 224.87 198.833 224.001 200.11C224.001 207.03 215.343 210.2 209.377 210.675C208.321 210.306 207.741 209.355 206.632 209.724C205.456 208.078 204.67 206.186 204.331 204.191C203.993 202.196 204.112 200.15 204.679 198.208C205.653 195.649 206.967 193.232 208.585 191.024C209.362 189.633 210.453 188.442 211.77 187.547C213.087 186.652 214.595 186.076 216.173 185.866C217.752 185.656 219.357 185.817 220.863 186.336C222.368 186.855 223.732 187.719 224.846 188.858ZM222.839 190.231C221.405 188.944 219.57 188.193 217.645 188.106C215.72 188.02 213.825 188.603 212.281 189.756C211.33 190.601 210.855 193.031 209.588 194.51C208.321 195.989 207.846 195.355 207.529 195.884C206.379 197.685 205.854 199.815 206.035 201.944C206.217 204.074 207.094 206.084 208.532 207.664C220.886 208.351 225.268 200.321 222.839 190.178V190.231Z" fill="#105DE1"/>
<path fill-rule="evenodd" clip-rule="evenodd" d="M240.683 203.122C241.739 207.612 239.891 212.683 235.404 213C234.661 213.13 233.898 213.053 233.196 212.778C232.494 212.504 231.881 212.041 231.424 211.442C230.966 210.843 230.682 210.129 230.602 209.379C230.522 208.629 230.649 207.872 230.969 207.189C232.471 205.048 234.246 203.113 236.249 201.431C238.202 201.009 239.311 202.488 240.683 203.122ZM238.307 204.759C235.615 203.967 234.401 207.876 232.5 209.197C235.298 212.842 240.314 208.933 238.307 204.759Z" fill="#105DE1"/>
<path fill-rule="evenodd" clip-rule="evenodd" d="M183.561 83.9955C182.083 83.7313 184.3 83.1502 184.353 82.5163C184.406 81.8824 183.139 83.837 181.766 83.1502C181.766 83.837 183.297 83.1502 182.875 84.5766C178.248 86.6943 173.859 89.2975 169.782 92.3422C168.885 92.0252 170.31 91.8668 170.204 91.4441C170.099 91.0215 169.676 91.0743 169.254 91.0215C168.409 92.395 168.885 92.395 167.248 92.3422C168.885 93.2403 163.183 96.4627 160.913 95.776C160.543 97.2023 161.81 95.4062 161.441 96.8325C159.487 98.2589 156.531 98.4702 155.317 100.9C153.733 100.478 153.786 102.062 152.413 101.851C151.69 102.265 151.075 102.844 150.618 103.542C144.336 106.341 138.845 110.092 132.933 113.367C132.563 113.367 132.616 113.896 132.51 114.266C124.538 116.748 119.312 122.612 112.079 125.993C106.604 129.658 101.431 133.756 96.611 138.249C91.0677 140.309 88.2697 145.751 82.7264 147.811C82.7264 148.181 82.7264 148.392 82.7264 148.445C77.7639 152.037 74.2795 154.573 68.7891 158.324C69.5282 158.324 69.7921 157.214 70.5312 156.95C70.3456 156.24 70.3456 155.494 70.5312 154.784C70.848 154.784 70.7952 154.414 70.9008 154.203C80.034 149.501 86.7387 141.841 95.4495 136.559C104.314 129.164 113.74 122.47 123.641 116.537C124.081 116.868 124.622 117.036 125.172 117.013C125.172 116.273 123.747 117.013 124.327 115.956C134.305 110.673 143.861 104.651 153.522 98.84C153.773 98.7353 154.042 98.6815 154.314 98.6815C154.586 98.6815 154.855 98.7353 155.106 98.84C155.686 98.3117 155.106 98.4702 155.106 97.6249C159.012 96.674 162.074 92.8176 165.664 92.3422C177.384 84.5237 190.899 78.7656 202.197 68.6755C204.045 68.6755 204.625 66.7738 206.737 66.9322C205.998 67.5662 206.737 67.619 207.635 67.6718C204.56 70.719 200.99 73.22 197.076 75.0676C195.862 75.8601 194.014 76.7581 193.75 76.9166C193.486 77.0751 193.064 78.3429 191.638 79.1882C189.104 80.7202 185.726 82.3578 183.561 83.9955ZM154.103 100.372C153.655 100.357 153.227 100.189 152.888 99.8965C152.888 101.006 151.568 100.161 151.78 101.376C153.099 101.798 153.575 101.112 154.103 100.372ZM145.181 104.44C142.963 105.919 142.646 106.341 140.429 107.715C142.541 107.451 145.444 106.5 145.181 104.545V104.44ZM180.024 84.7879C180.763 84.7879 182.294 84.1011 181.713 83.6785C181.133 83.2559 180.446 83.9955 180.024 84.8935V84.7879ZM148.823 102.961C149.457 103.7 150.09 102.432 150.777 102.221C150.777 102.221 150.407 102.221 150.777 101.851C151.146 101.481 150.143 101.851 150.09 102.115C150.037 102.379 150.46 102.115 150.407 102.432C150.354 102.749 148.929 102.485 148.823 103.066V102.961ZM140.693 108.243C139.32 108.243 139.109 108.243 138.423 108.93C138.763 108.959 139.082 109.109 139.32 109.353C139.215 108.19 140.535 108.93 140.693 108.19V108.243Z" fill="#105DE1"/>
<path fill-rule="evenodd" clip-rule="evenodd" d="M171.049 77.0224C170.522 76.9708 170.031 76.7271 169.671 76.3376C169.311 75.9481 169.106 75.4398 169.096 74.9094C163.817 73.6415 161.494 69.6266 156.901 67.672C154.103 70.3662 149.985 71.5812 147.662 74.8565C148.438 77.6503 149.408 80.3864 150.566 83.0448C148.718 83.9957 149.774 84.9994 148.032 86.2672C148.032 87.0068 149.774 86.5842 150.513 86.8483C151.621 89.2256 146.501 92.5537 144.283 92.1311C142.066 91.7085 142.488 89.9123 141.168 88.6445C139.943 77.9429 137.444 67.4261 133.725 57.3178C134.833 55.9972 136.945 52.0351 139.004 51.5597C139.69 51.5597 142.066 51.137 142.013 52.8275C145.022 52.4577 147.873 54.9934 150.46 56.5254C152.724 57.4616 154.928 58.5378 157.059 59.7479C157.64 60.1705 158.643 59.7479 159.804 60.329C162.581 62.0002 165.244 63.8532 167.776 65.8759C169.993 67.3022 173.055 66.7211 174.745 68.5172C174.745 68.887 174.745 69.0983 174.745 69.204C174.261 72.1026 172.982 74.8096 171.049 77.0224ZM145.761 68.6757C147.398 66.9324 149.668 65.9815 151.041 63.8684C148.664 61.9505 145.885 60.5959 142.911 59.9064C143.501 62.9346 144.458 65.8795 145.761 68.6757Z" fill="#105DE1"/>
<path fill-rule="evenodd" clip-rule="evenodd" d="M99.6202 142.634C99.6202 142.634 99.6202 143.056 99.6202 143.268C101.151 143.268 101.468 142.105 100.782 141.207C101.785 141.207 101.362 142.053 101.943 142.264C102.524 142.475 101.943 141.63 101.415 141.26C107.328 137.193 112.502 132.332 118.52 128.212C127.864 121.873 138.001 117.012 147.979 111.466C149.51 110.62 151.463 108.771 153.258 107.609C159.654 104.213 165.842 100.438 171.788 96.3041C176.241 92.1353 181.507 88.9338 187.257 86.9009C188.26 88.5385 186.042 89.1196 185.831 91.1799C184.828 91.1799 184.617 90.6516 184.406 90.0705C176.856 94.1382 170.521 99.6851 163.289 103.911C160.174 107.821 154.525 108.56 151.093 112.1C150.447 112.173 149.81 112.314 149.193 112.522C136.839 120.024 124.38 125.201 113.769 134.657C113.261 134.862 112.693 134.862 112.185 134.657C112.211 135.079 112.211 135.502 112.185 135.925C107.539 138.143 104.636 142.528 99.3563 144.007C96.7166 148.286 93.0739 149.29 89.9591 152.777C89.8538 153.06 89.8378 153.369 89.9133 153.662C89.9888 153.955 90.1522 154.217 90.3814 154.414C88.4365 155.843 86.3049 156.999 84.0463 157.848C83.5184 157.584 83.6239 156.844 83.2544 156.527C85.3661 152.829 89.2728 151.245 91.9652 148.286C92.4932 148.286 92.4932 148.656 92.8627 148.709C93.3379 146.385 98.142 144.271 100.518 141.947C101.046 142.158 100.307 142.951 99.6202 142.634ZM127.759 123.51H128.709C128.445 122.507 128.709 122.665 129.184 121.978C128.287 122.084 127.812 122.507 127.759 123.51ZM157.64 106.183C158.432 107.081 159.487 106.183 159.91 105.443H159.276C158.748 106.5 158.009 105.126 157.64 106.183ZM154.631 107.768C154.084 108.384 153.484 108.95 152.836 109.458C154.293 109.011 155.654 108.294 156.848 107.345C155.634 107.239 155.739 108.613 154.631 107.768ZM108.331 137.351C108.331 136.453 110.76 136.4 110.073 135.661C109.704 136.453 107.486 136.559 108.331 137.351Z" fill="#105DE1"/>
<path fill-rule="evenodd" clip-rule="evenodd" d="M36.5327 68.6755C36.5327 66.1398 34.949 62.8645 36.5327 60.2231C39.9115 55.2574 43.0791 48.8124 47.0913 43.0014C50.7464 36.5229 55.9759 31.0719 62.2957 27.1532C72.7851 19.8872 84.0896 13.8767 95.9777 9.24471L96.8223 10.3013C97.7726 10.3013 96.136 9.77299 96.8223 9.0334C107.106 4.91688 117.907 2.23284 128.92 1.05647C135.898 -0.264266 143.06 -0.264266 150.038 1.05647C159.21 3.22394 167.589 7.92852 174.217 14.6331C177.241 18.666 178.838 23.5911 178.757 28.6324C179.074 29.3191 180.182 29.3719 179.813 30.6398C186.201 29.6889 191.269 26.8891 198.29 28.4739C201.296 29.248 204.215 30.3278 207.001 31.6963C209.068 33.4044 210.977 35.2963 212.703 37.3489C215.104 39.7294 217.361 42.2521 219.46 44.9032C220.149 45.7608 220.784 46.6606 221.361 47.5974C221.361 48.0728 220.991 48.6539 221.361 49.1822C221.731 49.7105 222.575 50.7142 222.998 51.5594C225.56 57.4307 227.781 63.4455 229.649 69.5736C229.78 74.8672 229.533 80.1634 228.91 85.4218C228.171 89.1725 225.954 92.5007 225.268 95.9873C225.209 99.6606 224.713 103.314 223.789 106.87C221.286 110.995 218.462 114.916 215.343 118.597C212.244 123.683 208.711 128.49 204.784 132.966C203.623 134.129 203.147 135.555 201.3 136.03C195.87 141.706 189.853 146.788 183.35 151.192C175.798 156.484 167.556 160.715 158.854 163.765C157.957 163.765 156.795 163.395 156.32 163.765C147.028 168.731 137.631 165.772 125.858 169.048C123.008 167.621 119.471 169.048 117.359 168.783C109.476 174.135 100.988 178.532 92.071 181.885C82.1987 182.254 71.7457 182.466 62.0846 182.519C56.3946 182.202 50.7781 181.082 45.402 179.19C43.871 178.768 41.9704 178.926 40.4394 178.345C36.9345 176.35 33.1918 174.806 29.3001 173.749C28.7194 173.062 27.5579 172.851 27.2412 171.953C22.7023 170.162 18.4093 167.801 14.4653 164.927C6.17678 156.475 0 148.181 0 134.393C1.09509 126.041 2.86056 117.791 5.2793 109.722C5.2793 108.613 5.2793 107.398 5.64885 106.289C6.9228 102.618 8.5494 99.0796 10.5058 95.7231C16.8188 84.6969 25.7601 75.4049 36.5327 68.6755ZM38.3277 63.3928C38.3277 66.5096 39.8059 68.6755 39.2252 70.1547C38.0637 73.2715 33.418 73.5356 30.4616 75.4374C26.0734 79.036 22.1537 83.1712 18.7943 87.7462C17.844 88.9612 16.4186 90.0178 15.5739 91.18C13.2404 94.9959 11.2443 99.0084 9.60832 103.172C9.08039 104.176 8.07733 104.757 7.76057 105.496C7.83101 105.645 7.86755 105.807 7.86755 105.972C7.86755 106.136 7.83101 106.298 7.76057 106.447C7.02042 108.539 6.59346 110.728 6.49354 112.945C5.2793 114.477 4.75137 122.401 2.48127 125.835C2.48127 126.944 2.48127 126.786 2.95641 127.472C2.40586 129.709 2.05255 131.989 1.90055 134.287C2.30704 140.759 4.108 147.067 7.17985 152.777C7.97174 153.939 9.87229 155.101 9.29157 156.475C11.9312 157.637 13.5678 161.018 15.046 161.757C20.3253 164.504 24.5487 168.466 30.4088 171.266C34.1382 173.069 37.9829 174.622 41.9176 175.915C48.0585 178.151 54.4659 179.572 60.9759 180.141C64.4074 180.141 67.8918 179.455 71.5345 179.349C78.3976 179.085 86.0526 180.564 92.2821 179.349C101.48 175.635 110.143 170.714 118.045 164.716C121.785 165.528 125.656 165.528 129.396 164.716C133.168 164.354 136.959 164.231 140.746 164.346C146.615 163.492 152.431 162.31 158.168 160.806C164.661 158.218 169.518 155.894 175.642 152.882C179.401 151.283 182.947 149.224 186.201 146.754C187.151 145.856 187.785 144.43 188.735 143.532C191.375 141.049 194.753 139.359 197.604 136.876C204.54 130.582 210.422 123.216 215.026 115.058C217.296 113.632 218.246 110.885 219.777 108.666C221.631 105.74 222.636 102.357 222.681 98.8928C223.545 95.2986 224.657 91.7684 226.007 88.3273C227.159 82.4789 227.777 76.5378 227.855 70.5773C224.898 60.5929 220.991 47.3861 212.914 38.8809C212.175 38.1413 210.538 37.6658 209.324 36.6621C208.11 35.6584 208.004 34.549 207.107 33.9151C204.378 32.0584 201.297 30.7816 198.056 30.1637C194.814 29.5458 191.48 29.6 188.26 30.3228C188.26 30.0059 188.788 29.9002 188.26 29.7417C187.89 31.4322 184.406 30.9039 182.347 31.6435C180.405 32.1725 178.623 33.1722 177.159 34.5543C175.695 35.9365 174.594 37.6583 173.953 39.5676C172.844 38.5111 172 40.2016 171.313 40.8883C169.465 36.9791 174.956 34.6019 177.068 31.6963C175.801 30.0587 176.329 29.4248 177.068 27.5758C175.853 24.4062 175.062 20.8667 173.689 17.8027C168.185 11.4077 161.078 6.59405 153.1 3.85632C147.498 1.96914 141.568 1.25 135.678 1.74323C132.774 2.06019 128.868 2.06019 125.489 2.58846C112.584 5.18536 99.961 9.0244 87.7947 14.052C83.1489 16.4292 76.8666 20.4969 71.9568 22.4516C69.3877 24.9356 66.5139 27.0835 63.4044 28.8437C60.7005 30.9317 57.861 32.8376 54.9047 34.549C54.4296 36.398 53.2153 38.0356 52.0539 38.0356C50.3152 41.655 48.134 45.0443 45.5603 48.1257C43.5014 51.5066 43.3958 54.2536 40.2811 56.6837C39.9115 59.2194 38.4333 60.3288 38.3277 63.0758V63.3928ZM40.7034 56.1026C40.7034 56.1026 40.7034 55.7856 41.3369 55.8385C41.3369 55.0461 40.7562 54.9932 40.1755 54.7819C40.1902 54.9765 40.2446 55.1659 40.3354 55.3385C40.4262 55.5112 40.5515 55.6634 40.7034 55.7856V56.1026Z" fill="#105DE1"/>
<path fill-rule="evenodd" clip-rule="evenodd" d="M113.769 79.8223C114.772 82.2523 116.672 83.9428 117.834 86.2672C120.949 84.1541 123.113 80.6675 127.548 80.3505C128.762 81.143 128.92 82.8334 130.029 83.7315C128.181 87.5879 123.483 89.9123 120.526 93.4517C121.178 95.3084 122.046 97.0816 123.113 98.7345C127.917 97.044 129.976 91.9197 134.728 90.1764C135.308 92.8706 138.74 94.0328 137.42 97.4138C136.798 97.7322 136.143 97.9802 135.467 98.1534C131.446 102.407 127.027 106.263 122.269 109.67C120.911 109.55 119.568 109.302 118.256 108.93C115.247 105.708 115.141 99.8439 112.977 94.8253C112.713 94.1913 111.921 94.0328 111.552 93.3989C111.182 92.765 111.129 90.8632 110.654 89.8066C109.058 86.6085 107.167 83.5666 105.005 80.7203C103.791 79.611 102.524 80.1921 102.366 78.8714C102.207 77.5507 103.105 76.3885 104.847 76.2828C108.796 73.0123 113.099 70.1949 117.676 67.8833C120.21 64.2382 122.955 65.7702 125.542 67.8833C125.542 68.3059 125.542 68.7285 125.542 68.8342C123.852 75.3848 117.517 76.0187 113.769 79.8223Z" fill="#105DE1"/>
<path fill-rule="evenodd" clip-rule="evenodd" d="M87.2668 131.276C85.8942 129.85 88.0587 127.103 84.5216 127.208C80.673 117.58 75.4831 108.545 69.1061 100.372C60.0785 100.795 71.165 94.2439 73.3295 92.9232C78.7001 89.8122 84.8769 88.3774 91.0679 88.8027C93.0965 89.3459 95.0351 90.1824 96.8224 91.2856C99.9372 92.7648 102.418 93.293 103.949 95.5118C105.037 97.9489 105.568 100.598 105.504 103.266C105.44 105.935 104.783 108.555 103.58 110.937C102.524 112.892 100.835 115.111 99.462 117.118C97.1919 120.446 93.6548 123.035 91.2263 126.627C90.0649 128.318 89.3786 130.484 87.2668 131.276ZM82.7794 96.1457C81.0901 96.7268 76.8138 99.5267 76.5499 101.164C76.0747 104.915 81.3012 107.134 82.885 109.986C84.1352 112.449 85.8159 114.667 87.8476 116.537C92.2458 112.623 95.5867 107.663 97.5615 102.115C96.365 99.3853 94.1485 97.2322 91.386 96.1166C88.6234 95.001 85.5344 95.0115 82.7794 96.1457Z" fill="#105DE1"/>
<path fill-rule="evenodd" clip-rule="evenodd" d="M206.895 164.927C207.746 168.388 208.224 171.93 208.321 175.493C207.05 179.239 205.274 182.793 203.042 186.058C202.672 186.481 202.197 186.058 201.722 186.534C201.247 187.009 200.085 189.069 198.818 190.337C193.723 195.503 187.483 199.394 180.605 201.695C178.738 202.538 176.689 202.893 174.648 202.727C172.608 202.561 170.642 201.878 168.937 200.744C167.638 199.43 166.422 198.036 165.295 196.571C164.667 194.885 164.415 193.082 164.556 191.288C165.347 188.277 166.298 183.892 167.142 181.462C168.758 177.696 171.172 174.325 174.217 171.584C176.7 168.298 179.884 165.606 183.536 163.706C187.189 161.805 191.219 160.743 195.334 160.595C196.495 160.226 195.334 161.652 196.178 161.599C200.005 161.601 203.741 162.761 206.895 164.927ZM178.757 169.048C176.496 170.945 174.554 173.192 173.002 175.704C172.263 176.761 170.891 177.764 170.468 178.61C169.37 181.485 168.539 184.456 167.987 187.485C167.987 188.277 166.931 188.594 166.878 188.911C166.826 189.228 167.881 192.239 166.878 193.031C167.415 194.923 168.498 196.614 169.991 197.892C171.485 199.17 173.322 199.979 175.272 200.216C182.476 199.306 189.251 196.292 194.753 191.552C201.247 185.741 209.113 175.017 204.889 166.776C201.616 163.607 194.753 164.346 190.952 164.663C191.374 163.871 194.067 163.131 192.483 162.022C187.457 163.351 182.775 165.747 178.757 169.048Z" fill="#105DE1"/>
</g>
<defs>
<clipPath id="clip0_467_372">
<rect width="241" height="213" fill="white"/>
</clipPath>
</defs>
</svg>
