<svg width="200" height="54" viewBox="0 0 200 54" fill="none" xmlns="http://www.w3.org/2000/svg">
<g clip-path="url(#clip0_467_482)">
<path fill-rule="evenodd" clip-rule="evenodd" d="M176.225 30.1672C175.491 29.333 174.932 28.3603 174.58 27.3065C173.831 26.9275 174.085 27.8951 173.327 27.4146C171.163 23.5093 168.56 19.8644 165.567 16.5511C165.193 17.2829 165.012 18.0982 165.041 18.9198C165.07 19.7413 165.308 20.5418 165.733 21.2454C166.65 25.9432 166.593 28.4389 167.451 32.4594C166.981 32.7248 166.58 33.0985 166.283 33.5496C165.604 33.1987 165.281 32.6124 164.38 32.4512C164.548 32.0273 164.017 31.8002 163.911 31.3657C163.588 29.9946 163.619 27.9788 163.174 26.3794C163.11 25.6343 162.405 24.9786 162.273 24.2393C161.938 21.9901 161.833 19.7127 161.96 17.4422C161.805 15.6472 162.345 13.997 164.52 13.5023C168.401 16.5796 170.969 22.2269 175.061 25.7637C175.971 20.4989 172.626 16.5223 173.764 10.7261C175.261 11.0746 176.672 10.0317 178.707 10.2997C178.742 10.7061 178.772 11.0448 178.983 11.1289C176.56 15.4664 180.698 23.0938 179.233 27.0758C178.817 28.5788 177.116 29.0326 176.225 30.1672ZM177.057 12.5234C175.644 11.9628 176.117 14.2764 175.114 14.9088C175.395 19.0431 176.206 23.1243 177.526 27.0524C178.53 21.3017 176.447 17.3187 177.057 12.5234ZM163.275 19.2396C162.847 22.3265 163.417 25.4693 164.901 28.2095C164.964 25.1408 164.411 22.0907 163.275 19.2396Z" fill="white" fill-opacity="0.3"/>
<path fill-rule="evenodd" clip-rule="evenodd" d="M158.29 33.4195C158.333 33.9275 158.844 33.9176 158.759 34.505C156.268 36.8695 150.801 35.1913 148.169 37.4997C147.163 35.0733 146.749 32.4424 146.961 29.8244C147.054 26.4186 146.852 23.0112 146.356 19.6404C145.648 18.9508 145.266 20.451 144.51 19.5949C144.64 16.7517 148.107 18.1928 149.146 17.182C152.105 19.4517 156.532 15.4189 158.861 17.5041C158.949 18.5202 158.179 18.689 157.814 19.1982C157.17 19.2536 157.504 18.3719 156.913 18.2522C154.506 18.5135 152.155 19.1539 149.947 20.1496C149.809 22.1244 149.877 24.1083 150.151 26.069C152.175 25.7234 154.239 25.6718 156.278 25.9159C156.091 28.4911 151.93 26.5297 150.261 28.1408C150.39 29.631 150.865 30.7843 150.925 32.2804C153.952 32.5653 157.001 29.948 159.357 31.5532C159.254 32.2894 158.872 32.9578 158.29 33.4195ZM156.802 32.3877C154.955 32.5907 153.213 33.3475 151.804 34.5589C153.53 34.5635 155.252 34.415 156.951 34.115C156.828 33.5479 156.778 32.9675 156.802 32.3877ZM149.77 31.9364C149.22 30.364 148.828 28.7403 148.602 27.0897C148.42 24.9899 149.361 22.4521 148.049 20.6886C148.17 25.2503 148.394 30.622 148.606 35.4489C150.642 34.9321 148.862 33.2772 149.77 31.9364Z" fill="white" fill-opacity="0.3"/>
<path fill-rule="evenodd" clip-rule="evenodd" d="M151.83 24.1842C151.468 24.1977 151.114 24.0691 150.844 23.8257C150.806 23.3854 151.107 22.9159 151.74 23.1342C151.83 23.2923 151.885 23.468 151.9 23.6493C151.916 23.8305 151.892 24.013 151.83 24.1842Z" fill="white" fill-opacity="0.3"/>
<path fill-rule="evenodd" clip-rule="evenodd" d="M116.999 27.3254C116.818 27.9893 116.095 27.9152 115.984 28.6072C112.09 28.943 110.029 27.5854 107.065 28.4211C107.415 32.4853 107.924 36.3995 107.941 41.3454C107.988 41.8873 109.201 41.7145 109.222 42.3609C108.155 44.2272 104.956 43.923 102.823 42.9129C103.672 39.1245 103.865 35.2187 103.396 31.3648C103.041 30.8153 102.28 31.8705 101.809 31.1605C101.338 30.4504 102.497 30.0434 102.667 29.2439C100.726 28.4901 99.3569 30.4166 96.7414 29.755C97.0304 29.15 96.4915 29.2306 96.4285 28.8949C96.3654 28.5591 96.9825 28.1988 97.0285 27.5465C96.5504 26.6986 96.2599 25.7579 96.1766 24.788C102.161 24.9543 106.99 23.207 112.482 24.7807C112.057 25.3973 111.676 26.1127 110.863 26.1827C107.963 24.5904 101.939 25.5534 97.7845 26.4236C97.7556 26.7578 97.814 27.0939 97.9539 27.3988C98.0938 27.7037 98.3105 27.9671 98.5827 28.1631C103.606 27.528 108.67 27.2738 113.731 27.4025C113.667 26.6574 113.062 26.3684 113.192 25.5042C115.082 24.8635 115.691 26.7899 116.999 27.3254ZM105.615 28.6144C104.922 28.6066 104.23 28.6662 103.549 28.7925C106.855 31.9195 103.714 37.8203 105.221 41.8529C105.387 41.3951 106.289 41.9656 106.508 41.742C106.916 36.5887 105.571 32.8491 105.615 28.6144Z" fill="white" fill-opacity="0.3"/>
<path fill-rule="evenodd" clip-rule="evenodd" d="M77.6823 43.7161C77.904 42.3322 77.3902 40.3293 78.1035 39.1076C80.0406 39.4183 79.2263 41.8428 80.0116 43.0375C80.9899 43.2969 82.0105 43.3558 83.0122 43.2108C84.0138 43.0658 84.9758 42.7198 85.8403 42.1936C86.1755 41.2899 86.3064 40.3231 86.2235 39.3627C86.1407 38.4023 85.8462 37.4722 85.3613 36.6392C85.9871 36.3805 86.0648 36.8856 86.9527 36.5019C87.4092 37.0888 87.715 37.7786 87.8436 38.511C87.9722 39.2433 87.9196 39.996 87.6903 40.7034C89.0786 40.5836 89.7727 39.5343 90.43 38.454C87.9743 34.5031 83.4125 36.1931 79.4792 33.7003C78.3135 33.6682 77.1551 33.5048 76.026 33.2134C76.0111 31.2341 76.4874 29.2821 77.4122 27.5322C78.0068 26.3079 78.8405 25.2151 79.864 24.3181C82.9656 22.9586 86.4289 22.6599 89.7175 23.4683C89.8927 25.5004 92.1375 25.8186 92.8166 27.3637C92.953 28.0045 92.8409 28.6733 92.5029 29.2345C92.165 29.7958 91.6265 30.2077 90.9964 30.3868C90.2688 29.8705 89.656 29.2091 89.1966 28.4442C88.7373 27.6793 88.4414 26.8274 88.3276 25.9424C84.3133 25.6745 80.3231 28.8506 81.7175 32.7566C84.1669 33.5254 86.6801 34.0737 89.2271 34.395C90.6119 35.1053 91.6586 36.3356 92.138 37.8165C92.6174 39.2973 92.4904 40.9078 91.7847 42.2951C90.5087 46.0902 81.2192 46.7549 77.6823 43.7161ZM85.792 44.0062C88.143 43.974 91.0258 43.3842 90.5627 40.3874C89.0513 41.6943 87.4578 42.903 85.792 44.0062ZM91.2029 27.6393C91.0804 28.1958 91.0874 28.6729 91.311 28.8925C91.5346 29.112 91.4943 27.853 91.1013 27.6481L91.2029 27.6393ZM87.4868 24.1042C82.7124 24.516 77.1254 24.9979 77.9449 32.1266C79.0857 32.3012 79.2077 32.5295 79.966 32.2253C79.8448 26.4693 84.6682 25.4392 88.3549 24.6776C88.0256 24.0236 87.2831 24.9066 87.4868 24.1042Z" fill="white" fill-opacity="0.3"/>
<path fill-rule="evenodd" clip-rule="evenodd" d="M74.1852 45.485C74.2173 45.8575 73.6095 45.5346 73.6709 46.2459C71.1504 46.1415 68.6258 46.1997 66.1129 46.42C63.0946 47.0216 59.5423 49.3411 57.2414 47.1852C57.4045 41.1659 58.5401 33.7662 59.1597 27.5028C60.2771 27.4064 60.3717 26.9206 61.1569 26.1363C64.9786 28.1269 69.9419 24.7645 73.1875 27.5895C72.3714 28.4106 72.612 29.6181 72.1771 30.5087C69.1194 30.6673 66.0552 30.6582 62.9985 30.4814C62.8085 31.9575 62.743 33.4469 62.8026 34.934C64.8897 35.4022 68.0025 34.3149 69.6886 35.6708C68.419 38.7487 65.6118 34.2822 63.2534 36.6011C63.2767 36.8721 63.2972 37.1091 63.1513 37.3947C64.4299 38.3763 66.9308 36.5228 67.022 38.7669C65.7715 38.6988 64.5177 38.8069 63.2973 39.0881C63.3499 39.6978 63.7545 40.0382 63.458 40.9509C67.1488 40.6326 70.7788 38.8182 72.6904 41.9971C72.5159 42.8842 72.1848 43.7331 71.7127 44.504C72.7489 44.6535 73.7087 44.7072 74.1852 45.485ZM70.2588 41.4903C67.8184 40.8819 62.2326 41.7731 62.7466 45.755C65.317 45.4697 67.8529 44.9309 70.3173 44.1467C69.5759 43.46 70.6909 42.5449 70.2588 41.4903ZM65.6517 27.6253C65.7656 28.9462 63.0106 27.8531 63.3954 29.1506C65.8324 29.1397 68.2683 29.2599 70.6924 29.5107C70.6165 28.6302 71.1804 28.445 71.1383 27.5615C69.0454 27.0255 67.6992 28.0287 65.6517 27.6253ZM59.8572 43.104C61.0673 40.9182 63.2891 38.2017 60.9806 36.3536C61.7947 33.9917 61.8602 31.4361 61.1681 29.0356C59.7834 30.3834 60.3767 32.5159 60.0767 34.1796C59.1528 38.1271 58.734 42.1761 58.8304 46.2292C62.3555 47.1536 61.5404 44.426 59.8572 43.104Z" fill="white" fill-opacity="0.3"/>
<path fill-rule="evenodd" clip-rule="evenodd" d="M9.40887 51.856C9.2057 51.8735 8.83324 51.9056 8.75502 52.1853C7.77306 52.27 7.73097 51.3865 7.50909 50.7915C5.84168 50.0482 2.60327 49.6792 3.80461 47.3919C5.37397 48.0928 7.11005 48.3335 8.81082 48.0861C9.31253 42.0376 8.05414 37.3351 8.90788 31.0174C7.76764 30.058 6.29583 29.6049 5.48967 30.9369C7.67679 33.7509 6.52003 39.7194 6.60844 43.9086C6.52494 43.8637 6.43166 43.84 6.33685 43.8396C6.24203 43.8393 6.14859 43.8623 6.06477 43.9066C5.98095 43.9509 5.90932 44.0152 5.8562 44.0938C5.80308 44.1723 5.77011 44.2627 5.76019 44.3571C4.11669 43.0999 4.99576 40.6356 4.89114 38.6315C4.8179 35.6167 4.41065 32.6193 3.67687 29.6943C5.7388 28.2881 9.79517 29.4396 12.2017 30.0509C6.97805 35.1418 12.0058 45.1832 9.40887 51.856Z" fill="white" fill-opacity="0.3"/>
<path fill-rule="evenodd" clip-rule="evenodd" d="M7.05852 23.0227C3.42588 20.0605 8.19524 14.0534 11.7918 18.1788C11.9161 18.7126 11.9095 19.2686 11.7726 19.7993C11.6358 20.33 11.3726 20.8197 11.0057 21.2267C10.6387 21.6337 10.1788 21.9459 9.6651 22.1367C9.15144 22.3275 8.59925 22.3913 8.05562 22.3226C7.47707 22.3383 7.42222 22.889 7.05852 23.0227ZM8.4985 18.3605C8.27358 18.4745 8.07683 18.6371 7.92253 18.8365C7.76822 19.0359 7.66022 19.2672 7.60636 19.5136C7.5525 19.76 7.55412 20.0152 7.61111 20.2609C7.6681 20.5066 7.77903 20.7365 7.93586 20.934C10.5099 21.9062 11.7462 18.0463 8.4985 18.3605Z" fill="white" fill-opacity="0.3"/>
<path fill-rule="evenodd" clip-rule="evenodd" d="M40.9454 31.086C40.6168 31.6262 40.3732 30.3847 40.8724 30.2393C40.546 29.6192 39.7041 29.3506 38.8004 29.1556C40.6923 35.2706 41.6607 42.1476 44.8678 47.2962C46.3046 47.3429 46.2683 46.5271 46.9671 45.1361C48.6004 41.9244 51.874 35.9781 53.3882 32.5719C53.9013 31.4017 54.0104 29.1062 55.6929 29.234C55.7075 29.4034 55.9136 29.4197 56.0549 29.4758C54.9454 32.6706 53.3656 35.6819 51.3674 38.4102C51.5193 40.1714 50.0318 41.1186 49.3757 42.6082C48.1417 45.3078 48.2692 48.3677 45.9644 49.7265C43.2292 49.6553 43.2174 47.5409 41.7298 46.5091C41.6889 46.0349 42.1408 46.1324 42.0573 45.5596C40.434 40.5815 39.1598 35.3004 37.3421 30.4414C37.2983 29.9334 37.5429 29.6052 38.0315 29.7337C38.1529 28.7678 36.9281 28.8052 37.3367 27.6099C38.3127 27.5136 39.2974 27.6589 40.2041 28.0329C41.1109 28.4069 41.9117 28.9982 42.5362 29.7546C43.1291 33.4812 44.1993 37.1159 45.7204 40.5692C47.1131 36.1498 49.5812 32.7296 49.7082 27.8736C51.1955 27.5357 52.755 27.7531 54.0932 28.4849C54.2383 28.9156 54.2246 29.384 54.0544 29.8054C53.8843 30.2269 53.5691 30.5735 53.1657 30.7827C52.231 30.6245 52.5748 29.4689 51.9892 29.0075C50.9232 29.3042 52.0798 30.0575 52.1148 30.4639C50.0384 33.6797 48.8092 38.0167 46.9312 41.5566C46.1186 41.6267 46.1086 41.1157 45.8424 40.7975C45.0339 41.3108 46.3334 41.7446 45.6236 42.2153C43.429 41.688 43.5064 38.2352 42.8279 35.9053C42.5739 34.9377 42.0828 33.9905 41.8037 33.1275C41.5246 32.2644 41.6139 30.926 40.6599 30.94C40.7084 31.1065 40.81 31.0977 40.9454 31.086Z" fill="white" fill-opacity="0.3"/>
<path fill-rule="evenodd" clip-rule="evenodd" d="M194.739 9.49641C194.78 9.97057 195.217 8.70457 195.992 9.38835C197.707 9.88876 196.798 12.0143 195.946 12.8044C194.979 12.4298 193.939 12.2814 192.906 12.3705C191.873 12.4596 190.874 12.7838 189.986 13.3184C190.037 16.2825 191.933 20.8617 192.294 24.6521C192.431 26.2439 192.586 28.039 191.302 28.9686C191.049 28.7731 190.84 28.5274 190.687 28.2469C190.534 27.9665 190.441 27.6574 190.414 27.3392C190.386 27.021 190.425 26.7005 190.528 26.398C190.63 26.0955 190.794 25.8176 191.01 25.5818C190.535 21.6282 189.775 17.714 188.737 13.8697C187.959 13.9368 187.964 14.7894 187.965 15.1987C188.016 17.4668 188.211 19.7292 188.549 21.9725C188.64 23.8531 189.077 25.7009 189.838 27.423C189.364 27.4638 189.171 27.9923 188.892 28.3234C188.429 28.0962 188.018 27.7754 187.684 27.3814C187.351 26.9873 187.103 26.5285 186.955 26.0338C186.876 25.1194 187.396 24.4262 187.518 23.4604C187.848 20.5658 186.405 17.2782 186.529 14.3672C184.192 14.5687 182.986 16.0035 180.249 15.523C180.578 14.9828 179.389 14.6418 180.159 14.4731C181.929 13.638 184.473 13.8622 186.246 13.061C186.422 12.3319 186.461 11.5765 186.361 10.8332C184.678 10.7822 183.019 11.2342 181.594 12.1314C181.444 12.7586 181.922 13.1609 181.409 13.5463C180.149 13.1773 179.34 12.4964 179.745 10.8579C182.872 9.73075 186.188 9.2245 189.509 9.36746C191.71 9.17764 193.67 7.78022 195.51 8.54281C195.298 8.8947 195.039 9.2156 194.739 9.49641ZM191.353 9.78845C191.161 10.7263 189.66 9.93447 189.737 11.2244C190.008 11.201 190.071 11.5368 190.514 11.5327C190.713 11.2773 190.982 11.0853 191.288 10.9801C191.594 10.875 191.923 10.8612 192.237 10.9405C192.517 10.234 191.989 10.0407 191.427 9.85034L191.353 9.78845Z" fill="white" fill-opacity="0.3"/>
<path fill-rule="evenodd" clip-rule="evenodd" d="M137.376 40.5119C136.737 39.0317 136.441 37.1806 135.776 35.8048C137.075 33.0655 136.14 28.9493 136.356 25.5187C134.058 25.3756 134.302 28.5961 132.429 29.0306C132.724 30.4723 131.736 30.4893 131.298 31.3459C130.276 33.3448 131.684 35.8166 129.081 35.6998C127.754 32.8208 126.146 30.0794 124.282 27.5154C123.254 28.2524 124.515 30.2249 123.592 30.987C123.884 34.3738 126.004 37.603 124.442 40.8427C123.765 40.9011 123.193 41.394 122.579 41.0033C122.421 41.9382 121.694 42.2057 121.15 42.6279C120.376 42.3535 120.213 41.651 119.698 41.2177C121.595 35.5266 118.577 28.2122 120.047 22.319C120.595 22.5216 121.112 22.7985 121.585 23.1417C120.15 26.6775 121.884 28.9846 121.143 32.2559C122.207 34.3137 120.91 36.6775 122.066 39.0004C122.61 39.0013 123.154 38.9544 123.691 38.8602C124.09 36.3691 123.002 34.8252 122.883 32.6518C122.812 31.8389 123.256 31.05 123.223 30.2681C123.189 29.4862 122.822 29.1767 122.837 28.5613C122.946 26.2658 123.82 24.1431 121.598 22.9017C122.308 22.4311 121.473 21.4454 121.853 21.1055C123.003 21.791 123.68 21.7326 124.705 22.5314C124.479 27.4301 127.883 28.5355 128.967 32.4C131.129 28.5967 132.991 24.4781 134.755 20.4022C135.771 20.3146 135.704 20.7298 136.515 21.0351C136.897 20.3198 136.416 19.8836 136.58 19.0165C138.51 18.85 140.461 18.1358 142.034 19.365C142.092 20.0423 141.262 19.9092 141.069 20.4377C140.111 25.9454 143.099 32.5118 140.132 38.0564C142.566 39.3819 139.344 41.5706 137.376 40.5119ZM140.228 28.4943C139.008 26.2112 140.499 22.534 139.121 20.4009C136.647 25.7324 138.169 30.7192 138.041 37.1449C141.07 36.2695 139.75 30.8558 140.228 28.4943ZM133.813 26.4886C134.561 25.6734 136.034 24.5569 135.688 22.9149C135.178 24.119 133.512 24.9792 133.813 26.4886Z" fill="white" fill-opacity="0.3"/>
<path fill-rule="evenodd" clip-rule="evenodd" d="M30.3196 50.667C29.023 50.267 28.5909 49.2124 27.7758 48.4638C28.6807 47.0892 27.0542 46.8201 27.5071 45.3479C27.0606 44.9094 26.581 44.5059 26.0726 44.1409C24.796 39.8634 22.8226 35.8258 20.232 32.1907C20.3404 37.4018 17.9531 45.3189 19.6948 49.2973C19.4333 50.6164 17.8996 50.2369 16.7116 50.3052C16.0478 50.1236 16.0911 51.4165 15.6263 50.7742C14.5509 49.7751 15.8146 46.6293 15.9208 44.3C16.095 39.201 15.9908 34.4331 16.4547 29.9233C17.2367 29.5338 17.8846 28.9195 18.3152 28.1592C20.892 27.1863 21.0989 30.3758 22.0839 32.3039C22.7116 33.6487 23.7748 35.2972 24.7026 36.9573C26.1611 39.6294 26.1227 41.9529 28.0634 43.4916C28.5365 38.2986 28.1013 33.2521 28.7332 28.3184C30.8665 28.1344 33.4585 26.546 34.5492 28.9086C32.6461 30.5741 33.2651 33.7963 33.1806 36.772C32.9119 38.5736 32.7381 40.3881 32.6602 42.208C32.581 46.0363 33.3857 49.0377 30.3196 50.667ZM31.9063 29.5119C31.5491 29.534 31.197 29.4177 30.9232 29.1873C29.3172 31.1342 30.5043 34.6144 29.0601 36.8545C29.5789 40.0415 29.7548 43.2749 29.5849 46.4994C29.4478 46.8866 28.6561 46.4089 28.8617 47.2101C29.0672 48.0113 30.372 47.3187 30.8828 47.3087C31.3151 41.6416 31.8921 35.2795 32.0079 29.5031L31.9063 29.5119ZM17.9534 31.8754C17.0625 36.6013 16.7449 41.4174 17.0073 46.2194C17.9441 41.2594 19.4348 35.6033 18.055 31.8666L17.9534 31.8754Z" fill="white" fill-opacity="0.3"/>
</g>
<defs>
<clipPath id="clip0_467_482">
<rect width="196" height="36" fill="white" transform="translate(0.815918 17.4873) rotate(-4.92941)"/>
</clipPath>
</defs>
</svg>
