<svg width="355" height="233" viewBox="0 0 355 233" fill="none" xmlns="http://www.w3.org/2000/svg">
<g clip-path="url(#clip0_467_408)">
<path fill-rule="evenodd" clip-rule="evenodd" d="M119.259 2.04663C118.236 3.54491 115.934 3.14293 114.18 2.26589C110.526 2.26589 106.873 2.08318 102.634 2.26589C94.5593 2.66787 85.9364 0.292557 77.8981 2.74096C77.3501 1.79083 78.4462 0.76762 79.0308 0.21947C84.7512 -0.0264609 90.4822 0.193525 96.167 0.877249C100.077 1.13305 104.132 0.65799 107.932 0.65799C109.905 0.65799 111.951 0.986879 113.961 0.877249C115.97 0.76762 118.345 0.000210688 119.259 2.04663Z" fill="#105DE1"/>
<path fill-rule="evenodd" clip-rule="evenodd" d="M226.533 37.8956C227.739 36.1415 230.187 37.0917 231.612 36.9455C233.987 36.9455 236.106 36.3974 238.335 36.2512C240.564 36.105 243.048 36.0685 245.643 36.0319C248.237 35.9954 251.415 34.9356 254.192 34.6433C257.439 34.7325 260.688 34.5737 263.911 34.1682C264.532 28.7963 262.706 24.9593 262.267 20.3183C261.829 14.8734 263.254 8.44173 261.609 3.4353C256.275 1.60814 250.648 4.01999 245.862 2.52172C238.993 4.86049 230.918 4.23925 225.291 6.17605C225.291 2.04666 230.041 3.21604 233.622 2.9237C237.202 2.63135 241.66 1.68122 244.583 1.31579C246.556 1.09653 248.675 1.75431 250.575 1.53505C251.233 1.53505 251.781 0.950358 252.438 0.840728C256.106 0.746454 259.774 0.978811 263.4 1.53505C264.532 6.57802 263.4 14.8368 264.788 21.4146C264.569 21.6704 264.313 21.8897 264.094 22.1089C265.738 24.667 265.3 28.7233 265.738 32.3045C266.126 33.6878 266.151 35.1477 265.811 36.5435C260.719 36.159 255.6 36.306 250.539 36.982C247.832 37.7185 244.991 37.8061 242.245 37.2378C238.183 37.9435 234.084 38.4072 229.968 38.6265C228.835 38.6265 226.899 39.5766 226.533 37.8956Z" fill="#105DE1"/>
<path fill-rule="evenodd" clip-rule="evenodd" d="M190.434 2.95972C190.946 3.65404 189.521 3.94639 189.521 4.82343C190.763 16.8462 193.175 27.2976 193.686 38.1144C191.421 37.8586 190.983 38.5894 189.521 37.6393C187.804 37.6393 186.05 38.6991 184.223 38.8087C182.396 38.9183 180.387 38.0778 178.45 38.1144C176.514 38.1509 175.235 38.9183 173.591 39.0279C169.732 38.8269 165.866 38.8269 162.008 39.0279C159.706 39.4299 157.112 41.0013 154.701 39.503C155.066 36.7623 159.341 37.822 162.337 37.6393C165.333 37.4566 169.645 36.4699 171.8 37.6393C175.138 36.8375 178.6 36.6886 181.994 37.2008C185.356 37.2008 188.388 35.666 191.458 36.2507C191.056 32.3405 190.763 27.7726 190.288 23.0951C190.191 19.1132 189.652 15.1545 188.681 11.2916C188.461 10.6338 187.877 10.378 187.767 9.68368C187.475 7.85652 188.279 5.77355 187.292 4.34836C183.237 3.80021 179.473 5.59084 175.746 5.51775C173.81 5.51775 171.252 5.33503 168.804 5.51775C166.356 5.70047 164.237 5.51775 161.497 5.51775C158.756 5.51775 157.441 6.83331 155.249 6.68713C153.53 6.16936 151.711 6.08153 149.951 6.43133C151.23 15.7133 151.449 27.4072 153.605 37.6393C153.276 38.2971 152.362 38.4067 151.741 38.8087C149.695 30.8057 150.755 17.1751 148.745 8.07578C148.453 6.65059 147.137 5.55429 147.832 4.1291C150.17 3.76367 153.787 5.18886 156.856 5.04269C158.683 5.04269 160.51 3.8733 162.41 3.90984C165.808 3.90984 170.631 4.20219 174.869 3.90984C180.533 3.65404 185.794 1.38836 190.434 2.95972Z" fill="#105DE1"/>
<path fill-rule="evenodd" clip-rule="evenodd" d="M79.9808 4.12891C80.2 4.42125 80.2 5.00595 80.675 5.04249C80.5397 15.1533 80.9178 25.2644 81.8077 35.3369C83.7692 35.5379 85.7491 35.4641 87.6902 35.1176C88.0292 35.6004 88.2654 36.1477 88.3844 36.7255C85.0961 36.3235 81.7346 38.1142 78.1904 36.7255C80.675 35.6658 79.3596 33.0712 79.3596 29.7823C79.3596 29.1976 79.8346 28.5764 79.8346 27.9551C79.8346 24.922 78.775 21.2677 78.8846 18.0154C79.0673 13.9225 78.3731 8.87953 78.6654 4.12891H79.9808Z" fill="#105DE1"/>
<path fill-rule="evenodd" clip-rule="evenodd" d="M226.972 7.30859C227.427 10.443 227.659 13.6059 227.666 16.7733C229.338 20.4697 229.823 24.5933 229.054 28.5768C229.443 30.0937 229.748 31.6309 229.968 33.1812C228.726 32.8524 228.762 33.8025 227.885 33.8756C227.285 31.7746 227.135 29.5703 227.447 27.4074C227.447 21.3047 225.035 14.6173 225.803 7.52785C226.168 7.49131 227.008 7.85674 226.972 7.30859Z" fill="#105DE1"/>
<path fill-rule="evenodd" clip-rule="evenodd" d="M103.329 42.0244C106.361 46.5558 109.723 50.8679 112.792 55.9109C113.121 56.459 113.705 56.4956 114.18 57.0802C114.655 57.6649 113.778 57.5553 113.961 57.7746C114.144 57.9938 114.911 58.2496 115.094 58.6882C115.971 60.5153 118.199 63.658 119.734 65.9968C120.209 66.7642 120.647 68.0067 121.342 69.0299C122.036 70.0531 122.438 69.98 122.949 70.6378C124.045 72.0265 124.557 73.9998 125.288 75.023C126.42 76.6309 127.991 78.3484 129.416 80.1025C130.719 81.6575 131.938 83.2798 133.07 84.9628C133.655 85.8398 134.02 86.9361 134.678 87.7401C136.322 89.75 138.332 90.3346 137.93 93.2947C136.322 93.5505 136.359 92.2349 135.372 91.906C135.451 91.5025 135.373 91.084 135.153 90.7366C133.09 88.6262 131.441 86.147 130.293 83.428C125.304 78.0251 121.097 71.9483 117.797 65.3756C113.523 60.9904 111.623 54.1568 106.836 50.3563C105.594 48.1271 104.059 46.1903 102.671 44.1074C102.817 43.3765 103.292 42.9745 103.329 42.0244Z" fill="#105DE1"/>
<path fill-rule="evenodd" clip-rule="evenodd" d="M171.727 42.9753C171.325 52.8786 173.225 61.7586 173.335 71.8811C173.335 72.4292 172.969 72.6119 172.896 73.2332C172.677 75.0603 173.481 77.2164 173.335 79.0435C173.335 79.6282 173.335 79.2994 172.896 79.2628C173.956 82.4421 172.458 86.9004 173.81 89.8969C172.896 89.8969 173.225 91.1394 172.641 91.5048C170.814 90.6278 171.654 86.8273 171.727 84.1962C171.868 81.337 171.709 78.4709 171.252 75.645C171.724 65.0205 171.186 54.3751 169.645 43.8524C169.711 43.6489 169.821 43.4622 169.966 43.3047C170.112 43.1473 170.289 43.0228 170.486 42.9397C170.684 42.8566 170.897 42.8167 171.111 42.8229C171.325 42.829 171.535 42.881 171.727 42.9753Z" fill="#105DE1"/>
<path fill-rule="evenodd" clip-rule="evenodd" d="M239.687 42.9746C230.553 59.2729 220.688 76.2655 211.955 93.8063C210.713 93.6236 210.311 95.1584 209.397 94.5006C209.397 93.514 209.397 92.3446 210.786 91.9792C212.683 87.7449 215.009 83.7162 217.728 79.9564C223.757 66.947 231.247 55.3993 238.08 43.1939C239.176 43.5593 238.628 43.0112 239.687 42.9746Z" fill="#105DE1"/>
<path fill-rule="evenodd" clip-rule="evenodd" d="M309.949 101.005C309.949 101.846 309.291 102.029 309.035 102.613C305.82 101.152 302.166 102.358 299.316 101.444C296.289 102.158 293.157 102.319 290.072 101.919C287.667 102.434 285.222 102.739 282.765 102.833C282.509 102.833 282.144 102.175 281.851 102.138C279.454 102.739 277.009 103.13 274.544 103.308C272.936 113.101 275.603 121.031 276.846 133.127C276.538 133.403 276.162 133.59 275.756 133.667C275.35 133.744 274.931 133.709 274.544 133.565C275.165 127.39 272.717 121.433 272.717 116.463C272.671 115.076 272.512 113.695 272.242 112.334C271.804 109.191 273.192 106.195 272.242 102.613C278.307 100.494 287.551 101.115 295.59 100.75C300.851 100.53 306.112 98.8493 309.949 101.005Z" fill="#105DE1"/>
<path fill-rule="evenodd" clip-rule="evenodd" d="M312.726 101.444H314.59C315.43 108.059 315.43 114.892 316.197 122.713C316.006 122.923 315.768 123.085 315.503 123.188C315.942 126.826 316.174 130.486 316.197 134.151C315.77 135.458 315.142 136.691 314.334 137.805C312.616 136.343 314.334 133.602 314.59 131.117C314.845 128.633 314.224 126.184 314.224 123.407C314.475 116.054 313.973 108.695 312.726 101.444Z" fill="#105DE1"/>
<path fill-rule="evenodd" clip-rule="evenodd" d="M84.0366 105.976C84.0366 105.574 84.4386 105.976 84.6943 105.976C85.1707 107.248 85.1707 108.65 84.6943 109.922C86.8957 120.483 87.3769 131.33 86.1193 142.044C85.1328 142.044 85.5712 143.396 84.2559 142.994C83.5982 138.645 85.1693 135.685 85.4251 131.665C85.4716 127.884 85.313 124.102 84.9501 120.337C84.7674 118.254 84.4751 116.135 84.2559 114.307C84.0366 111.494 82.7578 107.583 84.0366 105.976Z" fill="#105DE1"/>
<path fill-rule="evenodd" clip-rule="evenodd" d="M39.9723 109.63C39.9723 110.617 39.2415 110.58 39.2781 111.494C39.9357 121.506 40.9588 128.413 42.3107 138.28C41.4703 138.28 41.178 138.718 40.4473 138.755C39.0223 129.254 39.2415 120.483 37.4512 111.494C37.9262 110.726 38.6204 109.045 39.9723 109.63Z" fill="#105DE1"/>
<path fill-rule="evenodd" clip-rule="evenodd" d="M182.14 122.712C179.875 121.616 178.487 122.42 175.673 122.493C174.65 123.406 174.76 125.416 173.591 126.147C172.568 125.891 172.86 124.685 172.896 124.064C172.896 119.716 176.148 115.659 175.417 111.347C175.856 110.689 177.281 111.055 177.756 110.434C178.194 110.434 178.048 111.055 178.669 110.909C181.044 115.44 182.652 119.679 184.917 125.234C184.364 125.372 183.875 125.694 183.529 126.147C182.467 125.135 181.665 123.881 181.19 122.493C181.629 122.456 181.702 122.785 182.14 122.712ZM176.112 120.191C177.716 120.471 179.349 120.545 180.971 120.41C179.839 118.4 179.985 115.075 177.756 114.161C177.028 116.117 176.478 118.135 176.112 120.191Z" fill="#105DE1"/>
<path fill-rule="evenodd" clip-rule="evenodd" d="M200.957 111.165C200.856 114.8 200.152 118.394 198.875 121.799C198.509 123.261 198.875 125.197 198.436 125.965C198.436 125.673 197.084 127.134 196.573 127.098C193.759 124.54 193.248 119.789 190.106 117.414C189.521 121.726 192.407 127.061 188.498 128.742C188.498 124.028 187.731 116.464 188.023 112.773C189.886 112.371 190.8 114.892 191.677 116.244C193.394 118.766 194.892 121.251 196.755 123.882C198.652 119.746 199.6 115.239 199.532 110.69C200.409 110.361 200.19 111.201 200.957 111.165Z" fill="#105DE1"/>
<path fill-rule="evenodd" clip-rule="evenodd" d="M264.204 119.716C263.38 120.798 262.246 121.601 260.952 122.018C260.221 121.689 260.952 121.031 260.477 120.629C257.388 120.567 254.299 120.726 251.233 121.105C249.991 121.105 248.821 120.483 247.579 120.41C244.619 120.41 241.331 121.433 238.335 121.105C236.143 120.849 232.854 121.543 230.004 121.105C230.589 120.337 232.014 120.483 232.562 119.716C238.485 119.314 244.425 119.24 250.356 119.497C256.019 119.825 260.404 117.596 264.204 119.716Z" fill="#105DE1"/>
<path fill-rule="evenodd" clip-rule="evenodd" d="M115.094 123.188C114.509 123.736 113.523 123.919 113.267 124.796C112.646 124.796 112.829 123.845 112.317 123.663C105.94 122.792 99.4653 122.94 93.1348 124.101C92.1559 123.858 91.1426 123.784 90.1387 123.882C90.1387 121.397 93.1348 122.238 95.2174 122.238C99.3827 122.238 104.352 121.836 108.188 122.018C110.819 122.164 113.669 121.434 115.094 123.188Z" fill="#105DE1"/>
<path fill-rule="evenodd" clip-rule="evenodd" d="M311.557 134.955C310.972 136.489 309.62 135.832 308.341 135.905C303.329 136.351 298.283 136.265 293.288 135.649C293.032 135.649 293.288 136.087 293.069 136.343C288.825 136.078 284.566 136.237 280.354 136.818C278.636 137.111 276.042 138.901 274.361 136.818C275.019 134.553 277.065 135.978 278.527 135.905C282.4 135.649 286.711 134.516 291.242 134.516C297.687 134.852 304.149 134.693 310.57 134.041C310.862 134.297 311.411 134.443 311.557 134.955Z" fill="#105DE1"/>
<path fill-rule="evenodd" clip-rule="evenodd" d="M83.4519 140.984C83.2326 141.678 82.5019 141.897 82.0634 142.372C76.8385 140.034 67.6311 145.296 63.1004 140.07C58.862 141.788 52.1391 140.765 46.9142 141.203C45.2335 141.203 43.8085 142.446 42.5297 141.678C42.2739 140.216 44.4296 140.289 45.5258 140.07C47.265 139.512 49.0501 139.108 50.8603 138.864C52.3583 138.864 54.514 139.814 56.6332 139.778C58.7524 139.741 60.5062 138.864 62.4062 138.864C64.3061 138.864 66.8272 140.984 68.8733 141.166C74.1348 141.642 79.3596 137.987 83.4519 140.984Z" fill="#105DE1"/>
<path fill-rule="evenodd" clip-rule="evenodd" d="M49.6915 146.977C49.6915 146.685 50.2761 146.977 50.6049 146.758C50.6049 148.475 48.8511 149.791 47.8646 151.399C47.0433 153.05 46.025 154.597 44.8319 156.003C43.9612 158.388 42.5331 160.531 40.6666 162.252C38.9739 166.275 36.8025 170.078 34.1995 173.581C33.5418 177.6 30.5457 179.756 29.34 183.74C28.2438 183.74 28.2438 185.019 27.2573 184.434C28.5727 179.354 32.5553 176.906 33.761 171.717C34.3822 171.717 34.3822 170.986 34.8937 170.803C38.9424 162.939 43.4189 155.302 48.303 147.927C48.8252 147.726 49.3628 147.567 49.9107 147.452C49.9472 147.196 49.8741 147.05 49.6915 146.977Z" fill="#105DE1"/>
<path fill-rule="evenodd" clip-rule="evenodd" d="M94.9981 181.657C93.0982 181.401 93.0982 179.245 91.7463 178.441C91.1251 174.165 86.7772 171.753 84.0368 167.807C83.5618 167.149 83.5253 166.199 83.0868 165.468C80.5553 161.174 77.697 157.081 74.537 153.226C73.2582 151.618 68.3987 148.366 71.5409 146.758C72.8928 149.499 75.7062 151.362 77.3139 154.066C77.3139 154.359 77.3139 154.651 77.3139 154.761C77.3139 154.87 78.7023 155.784 79.1773 156.405C81.4061 159.183 82.6484 162.8 84.6945 165.87C86.7406 168.94 90.0655 170.803 91.6367 174.202C92.3674 173.398 91.1617 172.521 91.6367 171.644C93.3134 174.344 94.7091 177.21 95.802 180.195C94.9981 179.281 96.1673 181.657 94.9981 181.657Z" fill="#105DE1"/>
<path fill-rule="evenodd" clip-rule="evenodd" d="M115.788 187.211C115.738 187.456 115.617 187.681 115.44 187.858C115.263 188.035 115.038 188.157 114.793 188.207C114.548 188.258 114.294 188.235 114.061 188.143C113.829 188.05 113.629 187.891 113.486 187.686C113.449 186.809 115.459 186.371 115.788 187.211Z" fill="#105DE1"/>
<path fill-rule="evenodd" clip-rule="evenodd" d="M110.234 188.124C110.234 188.855 110.234 189.842 110.015 190.207C108.139 189.982 106.333 189.359 104.717 188.38C101.604 189.203 98.3303 189.203 95.2171 188.38C90.9421 189.732 84.8769 188.599 79.2866 189.294C76.1079 189.696 73.4406 191.742 70.7368 190.902C71.1753 187.247 75.9617 188.599 79.0309 188.38C85.33 187.723 91.6608 187.418 97.9939 187.467C102.525 187.613 106.982 186.59 110.234 188.124Z" fill="#105DE1"/>
<path fill-rule="evenodd" clip-rule="evenodd" d="M116.263 189.294C117.578 189.513 117.688 190.938 118.346 191.852C115.934 201.244 118.346 208.662 117.651 219.588C117.305 219.812 116.886 219.891 116.482 219.808C117.651 220.429 117.396 221.415 116.482 222.11C116.999 221.815 117.601 221.701 118.19 221.787C118.779 221.873 119.323 222.154 119.734 222.585C119.551 223.645 118.492 223.791 118.126 224.668C117.213 224.668 117.396 223.681 116.482 223.754C109.611 224.862 102.643 225.242 95.6922 224.887C91.6745 224.859 87.6591 225.091 83.6713 225.581C82.1733 225.581 80.7118 225.581 79.2868 225.581C76.6926 225.91 74.5369 227.372 71.9793 226.056C71.7235 224.595 72.7466 224.485 72.9293 223.498C73.1119 222.512 72.9293 222.183 72.6735 221.891C72.8927 213.924 74.5004 203.619 72.9293 195.324C72.6735 194.081 71.9793 192.985 72.6735 191.377C73.8427 191.158 73.4773 192.437 74.5369 192.29C75.2782 202.762 75.4368 213.266 75.0119 223.754C82.8675 223.974 91.3808 223.535 101.356 223.279C106.004 223.598 110.674 223.204 115.203 222.11C117.067 216.19 114.619 208.296 115.459 202.011C115.884 197.786 116.03 193.538 115.898 189.294H116.263Z" fill="#105DE1"/>
<path fill-rule="evenodd" clip-rule="evenodd" d="M47.8643 193.241C47.8643 194.154 47.2066 194.3 46.9143 194.849C49.3623 200.257 47.7181 205.812 47.8643 211.951C48.4862 217.011 48.4862 222.129 47.8643 227.189C46.7316 227.007 46.2931 228.286 45.5259 227.664C46.47 222.849 46.6304 217.913 46.0008 213.047C46.0008 210.051 47.0239 206.871 46.9143 203.802C46.619 200.671 46.0815 197.567 45.3066 194.52C44.6855 194.227 43.699 194.264 43.4432 193.606C40.569 194.295 37.5836 194.382 34.6742 193.862C32.4088 193.862 30.2531 194.629 27.9512 194.775C25.6494 194.922 24.0052 194.264 21.9225 194.593C16.588 195.543 9.90162 195.945 4.12867 196.932C4.85943 201.207 3.25177 205.373 3.90945 210.562C4.45751 215.057 4.53059 219.698 5.04211 224.193C4.23829 224.412 3.32484 225.399 2.52102 224.887C3.79983 218.346 1.46142 211.476 2.04603 205.483C2.22871 203.619 3.58061 200.44 2.26525 197.845C1.71719 197.005 0.73067 197.845 -0.0366211 197.407C-0.0366211 196.237 1.5345 196.639 2.04603 196.456C2.04603 195.47 1.75372 194.922 2.26525 194.154C3.54407 193.606 3.69022 194.666 4.12867 195.543C9.17087 193.825 14.3227 194.629 19.8399 193.679C21.0822 193.46 22.1783 192.839 23.311 192.766C24.4436 192.693 26.6359 193.277 28.3897 193.241C34.6011 192.985 40.301 192.437 45.9643 192.071C46.4862 192.618 47.1407 193.021 47.8643 193.241Z" fill="#105DE1"/>
<path fill-rule="evenodd" clip-rule="evenodd" d="M46.6953 228.834C46.2569 229.565 45.2704 229.711 44.8319 230.442C41.1782 228.98 36.8667 230.99 33.5052 229.748C27.8132 231.39 21.8772 232.021 15.9672 231.612C11.1442 231.612 8.00196 233.11 2.77707 233C2.50735 232.636 2.34404 232.204 2.30533 231.752C2.26662 231.301 2.35404 230.847 2.55784 230.442C6.18108 231.2 9.92911 231.125 13.5191 230.223C17.6479 229.784 22.069 230.625 26.2343 229.967C29.0982 229.13 32.0574 228.664 35.0398 228.578C38.9494 228.834 43.1877 227.555 46.6953 228.834Z" fill="#105DE1"/>
<path fill-rule="evenodd" clip-rule="evenodd" d="M119.259 5.99316C120.1 12.3517 119.515 20.1354 121.817 25.3976C121.086 28.8327 122.621 32.7063 122.511 36.3606C121.232 38.5167 120.319 36.8722 117.652 36.3606C116.482 36.1414 114.29 36.5434 112.317 36.3606C110.344 36.1779 108.663 35.9952 106.544 35.9221C106.179 35.9221 105.521 35.4471 105.156 35.4471C104.79 35.4471 104.388 36.1414 104.023 36.1414C103.658 36.1414 103.292 35.6298 103.073 35.6663C101.538 35.9221 100.296 36.6895 98.6885 36.8357C95.9847 36.0317 91.8559 37.8589 90.1387 35.9221C92.0816 35.19 94.2245 35.19 96.1674 35.9221C103.804 33.8391 112.207 35.4105 120.173 34.7527C120.173 25.2515 116.921 16.9562 118.346 6.54131C118.784 6.39514 119.113 6.28551 119.259 5.99316Z" fill="#105DE1"/>
<path fill-rule="evenodd" clip-rule="evenodd" d="M223.282 100.311C224.049 114.234 223.282 124.393 224.67 138.682C223.908 139.27 223.012 139.662 222.063 139.821C221.113 139.981 220.138 139.903 219.226 139.595C206.438 140.691 194.453 141.02 182.031 142.153C176.038 142.665 166.977 143.578 160.108 143.761C158.354 143.761 156.454 143.14 154.591 143.067C152.727 142.994 151.375 143.505 149.95 143.286C149.402 143.286 149.11 142.628 148.818 142.592C148.525 142.555 147.174 143.03 146.479 143.067C141.949 143.067 137.418 142.519 132.851 142.592C128.832 142.507 124.812 142.739 120.83 143.286C121.376 130.331 121.071 117.355 119.917 104.44C121.268 104.44 121.122 102.942 122.438 102.394C125.836 100.932 133.399 103.636 137.053 101.7C139.172 103.308 141.51 101.7 143.995 101.7C145.347 101.7 146.954 102.248 148.635 102.138C149.695 102.138 150.827 101.7 151.85 101.7C157.916 101.48 164.785 102.467 171.727 102.138C174.138 102.138 176.477 101.298 179.034 101.225C180.496 101.225 181.994 101.736 183.419 101.7C184.844 101.663 186.671 100.786 188.278 100.75C190.873 100.75 193.54 101.517 196.39 101.225C203.507 100.091 210.678 99.3222 217.874 98.9224C219.771 98.873 221.643 99.3539 223.282 100.311ZM217.728 100.75C215.041 100.512 212.339 100.512 209.653 100.75C207.863 100.75 205.999 101.517 204.319 101.7C197.011 102.431 191.019 102.357 184.442 102.833C182.432 102.833 180.496 102.54 178.45 102.613C173.236 103.263 167.992 103.641 162.739 103.746C161.533 103.746 160.364 103.125 159.268 103.088C158.171 103.052 156.893 103.527 155.614 103.527C151.339 103.527 146.991 103.235 142.899 103.308C141.437 103.308 140.085 104.038 138.733 104.002C137.382 103.965 137.053 103.381 136.176 103.308C135.299 103.235 132.522 103.929 130.184 104.002C128.978 104.002 127.224 103.563 126.53 103.746C125.836 103.929 125.799 104.44 125.361 104.44C124.082 104.44 122.84 103.746 121.707 104.221C121.707 117.413 122.986 128.742 123.315 140.984C138.441 140.984 153.458 142.263 167.708 141.897C170.375 141.897 173.152 141.02 175.783 140.984C191.64 140.618 206.913 138.206 222.003 138.426C221.784 124.466 222.624 112.005 221.089 101.444C219.445 102.723 219.226 101.078 217.728 100.75Z" fill="#105DE1"/>
<path fill-rule="evenodd" clip-rule="evenodd" d="M83.4522 104.916C82.9407 106.268 80.6023 104.916 79.7985 104.44C75.5966 103.819 69.3487 103.892 64.7815 103.746C61.1277 103.746 58.0586 104.879 54.624 104.916C53.3918 104.767 52.1711 104.535 50.9702 104.221C48.4249 104.445 45.8622 104.372 43.3339 104.002C42.9264 104.504 42.3569 104.847 41.7233 104.974C41.0897 105.101 40.4318 105.003 39.8628 104.696C40.082 102.686 42.8954 102.65 44.4665 102.613C48.6684 102.613 52.7606 103.746 56.9624 103.308C58.497 103.125 59.8489 102.65 61.3469 102.613C62.845 102.577 64.2334 102.833 65.768 102.833C70.9112 102.411 76.0802 102.411 81.2234 102.833C82.0638 103.052 83.6349 103.563 83.4522 104.916Z" fill="#105DE1"/>
<path fill-rule="evenodd" clip-rule="evenodd" d="M146.15 122.237C145.602 124.722 147.685 129.107 144.543 130.131C142.589 124.434 142.589 118.249 144.543 112.553C149.11 111.53 154.298 110.068 155.504 114.417C156.71 118.766 151.85 122.639 146.15 122.237ZM154.006 116.025C154.298 110.58 143.739 112.992 147.064 116.719C146.838 116.754 146.622 116.833 146.428 116.952C146.233 117.072 146.064 117.228 145.931 117.413C146.187 118.144 145.931 119.314 146.406 119.935C149.804 121.068 154.006 119.131 154.152 116.025H154.006Z" fill="#105DE1"/>
<path fill-rule="evenodd" clip-rule="evenodd" d="M162.264 112.773C161.844 116.769 161.844 120.799 162.264 124.795C163.36 126.622 168.11 124.795 169.206 126.659C168.877 127.353 167.818 127.28 167.818 128.267C167.233 127.901 166.32 127.901 165.735 127.573C165.735 128.779 163.506 127.975 162.739 128.486C162.612 128.069 162.37 127.697 162.04 127.412C161.71 127.128 161.306 126.942 160.875 126.878C160.092 122.454 159.858 117.949 160.181 113.467C161.022 113.284 161.241 112.188 162.264 112.773Z" fill="#105DE1"/>
<path fill-rule="evenodd" clip-rule="evenodd" d="M293.069 139.596H293.763C294.128 145.808 295.298 149.682 293.544 154.615C293.544 155.346 294.238 155.602 294.457 156.259C293.398 163.97 295.773 167.478 294.238 174.531C292.119 174.312 293.325 171.169 293.069 168.977C293.069 167.661 292.228 165.688 293.069 164.591C292.41 160.003 292.337 155.349 292.85 150.741C293.288 145.26 290.73 142.519 293.069 139.596Z" fill="#105DE1"/>
<path fill-rule="evenodd" clip-rule="evenodd" d="M194.599 200.988C194.599 202.011 193.686 202.23 193.467 203.071C183.188 203.056 172.921 203.752 162.739 205.154C162.689 205.354 162.598 205.542 162.472 205.705C162.347 205.869 162.188 206.004 162.008 206.104C160.534 205.848 159.018 206 157.623 206.542C157.623 205.812 156.893 205.592 156.929 204.715C165.662 202.194 177.609 202.23 188.132 201.244C190.324 200.988 192.553 199.782 194.599 200.988ZM184.442 202.632C185.355 202.632 186.013 202.34 186.305 201.682C185.575 201.755 184.698 201.792 184.442 202.486V202.632Z" fill="#105DE1"/>
<path fill-rule="evenodd" clip-rule="evenodd" d="M347.839 184.653C347.839 185.75 345.573 185.165 346.012 186.078C339.873 185.713 334.393 184.763 328.218 184.909C318.389 184.909 308.268 185.859 297.234 185.823C281.669 185.823 265.775 185.603 250.539 185.384C248.839 185.435 247.143 185.581 245.46 185.823C241.806 186.152 236.801 185.64 232.27 185.823C230.28 193.984 229.504 202.394 229.968 210.782C229.865 213.977 230.185 217.172 230.918 220.283C229.018 225.399 236.216 224.193 240.856 223.937C243.414 223.937 246.154 223.937 248.712 223.937C251.852 223.544 255.011 223.313 258.175 223.243C259.162 223.243 260.039 223.682 260.952 223.718C265.629 223.718 269.1 222.768 274.361 223.243C275.64 223.243 276.444 223.937 278.015 224.157C279.779 224.285 281.55 224.285 283.313 224.157C292.521 224.376 302.605 224.632 312.543 223.937C325.454 222.697 338.446 222.538 351.383 223.462C351.894 216.592 352.15 210.014 352.552 203.144C352.954 196.274 351.602 191.706 352.552 185.092C353.758 184.873 352.991 184.142 353.685 183.484C354.525 183.776 354.635 184.873 355.292 185.348C355.292 186.371 354.05 186.078 353.94 186.956C353.575 192.474 354.525 197.443 354.16 202.669C354.16 203.619 353.575 204.569 353.465 205.666C353.465 207.712 354.05 210.087 353.94 212.609C353.721 217.36 352.004 222.001 355.073 224.157C354.233 224.412 354.452 225.363 353.94 226.24C349.885 223.755 344.368 225.874 340.056 224.157C333.881 224.157 324.272 224.887 317.878 224.412C315.559 225.341 313.022 225.582 310.57 225.107C303.007 225.801 294.896 226.166 287.003 226.24C282.86 226.445 278.713 225.9 274.763 224.632C263.802 224.997 252.183 225.545 241.478 225.326C237.436 226.047 233.342 226.438 229.237 226.495C228.105 224.741 229.237 222.841 229.237 221.379C229.237 220.393 228.836 219.625 228.762 218.602C227.886 207.639 229.53 198.54 230.151 186.261C229.895 185.421 227.301 186.261 227.155 184.873C227.009 183.484 228.836 183.265 229.676 184.178C233.841 183.922 238.189 184.178 242.647 184.397C245.095 184.397 247.397 183.813 249.954 183.703C252.512 183.594 253.864 184.069 255.946 184.178C258.614 184.178 261.391 183.959 264.277 183.959C274.142 183.959 285.359 184.324 296.869 184.178C299.353 184.178 301.801 184.653 304.176 184.617C311.995 184.617 321.532 183.265 329.753 183.265C333.406 183.265 336.622 183.776 339.947 183.959C342.248 184.105 345.646 182.716 347.839 184.653Z" fill="#105DE1"/>
</g>
<defs>
<clipPath id="clip0_467_408">
<rect width="355" height="233" fill="white"/>
</clipPath>
</defs>
</svg>
