<svg width="610" height="121" viewBox="0 0 610 121" fill="none" xmlns="http://www.w3.org/2000/svg">
<g clip-path="url(#clip0_467_465)">
<path fill-rule="evenodd" clip-rule="evenodd" d="M397.019 21.5049C399.34 39.199 399.749 53.7625 380.09 58.6624C377.125 59.3433 374.044 59.3433 371.079 58.6624C372.554 64.7338 376.012 70.1441 380.909 74.0426C386.37 78.1259 401.934 77.8536 395.38 86.9729C377.496 82.8896 368.075 70.5038 353.33 62.7457C351.282 69.415 349.098 81.5286 353.33 85.3396C348.798 88.4049 343.888 90.8752 338.722 92.6894C340.497 79.0786 333.397 59.0707 334.626 41.785C334.662 34.604 336.051 27.4937 338.722 20.8244C343.91 12.794 363.979 14.2912 376.813 15.1079C383.995 15.4354 390.963 17.6416 397.019 21.5049ZM389.783 25.5882C381.864 19.7355 360.976 18.3745 357.29 28.8548C357.29 32.3936 362.887 34.0269 359.747 37.7018C356.88 37.7018 356.744 32.938 354.15 35.2519C351.952 40.0677 351.377 45.4634 352.511 50.632C363.979 60.2957 396.609 45.4599 389.783 25.5882ZM344.456 47.3655C347.46 46.2766 346.094 38.9268 341.999 40.1517C342.272 43.01 341.316 47.9099 344.456 47.3655ZM344.456 67.6455C344.456 62.2012 347.596 58.5263 342.818 56.3486C344.183 62.4734 340.36 65.8761 344.456 68.0539V67.6455Z" fill="white" fill-opacity="0.3"/>
<path fill-rule="evenodd" clip-rule="evenodd" d="M120.007 81.665C130.818 90.7564 143.564 97.273 157.278 100.72C157.354 102.946 157.913 105.128 158.917 107.117C140.213 113.242 128.062 93.5064 111.952 91.8731C108.538 94.0508 109.631 100.448 110.313 105.484C109.221 106.573 106.491 105.484 105.398 106.981C104.306 108.478 106.491 109.159 106.217 111.064C102.941 111.064 102.122 112.97 98.9816 112.698C88.4691 86.9732 90.3804 70.2319 87.6499 40.8326C95.8061 35.7745 105.385 33.4827 114.955 34.2994C118.914 34.2994 122.874 37.9743 128.608 39.1993C143.08 42.7381 153.865 42.1937 157.824 55.3962C159.104 61.2645 158.821 67.3643 157.005 73.0902C151.135 81.665 132.977 79.2151 120.007 81.665ZM92.7014 43.0103C94.2032 56.6211 89.8343 76.0846 98.4355 86.5649C98.4355 81.8011 101.576 70.9125 96.7972 68.7347C97.8894 59.7516 96.7972 45.052 105.671 39.7437C98.8451 38.9271 97.4798 42.8742 92.4283 43.4187L92.7014 43.0103ZM110.586 47.7741C111.815 58.6628 109.631 64.9237 110.586 76.0846C122.543 76.631 134.304 72.9157 143.762 65.6043C137.755 55.124 124.512 35.6605 110.313 48.1824L110.586 47.7741ZM149.36 63.971C149.36 68.3264 146.356 69.9597 144.581 72.818C148.131 72.818 148.95 70.2319 151.817 69.5514C155.367 55.9406 147.312 44.2353 136.526 46.9575C141.482 52.1732 145.708 58.0337 149.087 64.3793L149.36 63.971Z" fill="white" fill-opacity="0.3"/>
<path fill-rule="evenodd" clip-rule="evenodd" d="M604.402 25.5882C600.716 23.4105 600.716 19.5995 600.716 16.7412C597.2 12.5442 592.292 9.74217 586.882 8.84323C581.472 7.94428 575.918 9.00794 571.227 11.8413C568.496 15.9246 563.718 28.9909 569.588 35.2519C587.746 36.8852 607.679 47.5016 604.402 64.379C602.472 69.301 599.146 73.5564 594.831 76.6259C590.516 79.6954 585.397 81.4462 580.101 81.6647C575.732 81.6647 564.673 81.6647 559.895 80.8481C555.116 80.0314 548.29 77.9898 548.563 72.6816C551.567 68.7345 555.526 72.6816 559.895 72.6816C566.616 73.4193 573.416 72.5719 579.748 70.2077C586.08 67.8434 591.766 64.0285 596.347 59.0708C593.207 43.8267 573.411 44.3711 559.758 40.8323C556.219 36.6995 553.236 32.1239 550.884 27.2215C556.072 2.17765 582.422 -6.80547 606.041 5.44424C610.41 11.1608 612.731 22.3216 604.402 25.5882ZM561.533 33.6186C561.196 27.6722 561.748 21.7089 563.171 15.9246C555.526 17.694 553.478 31.3048 561.533 33.6186Z" fill="white" fill-opacity="0.3"/>
<path fill-rule="evenodd" clip-rule="evenodd" d="M186.359 75.6762C184.038 73.2262 184.993 77.7178 182.399 77.3095C183.628 54.9878 192.093 33.2105 221.309 36.4771C225.678 40.8325 232.368 40.9687 236.6 43.8269C237.42 43.8269 236.6 46.5491 237.42 46.9574C238.239 47.3657 243.29 49.2712 244.792 52.6739C246.294 56.0766 244.792 60.9765 244.792 66.2847C245.203 68.7178 245.75 71.1261 246.43 73.4985C245.748 96.2285 221.719 107.934 200.148 105.62C195.821 101.914 192.349 97.3192 189.969 92.1511C187.589 86.9829 186.358 81.363 186.359 75.6762ZM224.45 43.4186C187.314 30.6244 187.178 98.9507 221.309 90.2397C224.159 85.9122 227.404 81.857 231.003 78.1261C232.164 70.0919 232.164 61.9332 231.003 53.8989C233.733 50.4962 223.494 46.2769 224.45 43.4186ZM204.79 95.2757C228.818 107.117 251.891 72.6818 235.645 56.6211C240.423 78.5345 229.091 101.401 204.79 95.2757Z" fill="white" fill-opacity="0.3"/>
<path fill-rule="evenodd" clip-rule="evenodd" d="M461.869 23.1387C455.179 32.1218 444.53 24.3637 431.833 28.0386C429.424 31.2253 427.747 34.901 426.922 38.8054C426.096 42.7098 426.141 46.7475 427.055 50.6325C435.929 52.2658 451.902 40.6966 457.773 49.8159C447.412 52.4738 436.872 54.3842 426.235 55.5324C425.379 62.8291 425.936 70.2218 427.874 77.3097C435.246 74.4514 447.67 77.3097 451.356 69.9598C457.227 70.6404 460.23 69.9598 463.507 73.2264C461.732 75.6764 460.777 78.6707 457.773 79.7596C456.681 83.1623 461.596 80.7124 461.05 83.7067C445.895 83.7067 434.7 92.4176 420.092 92.6899C420.092 89.4233 422.14 88.7427 423.368 86.9733C418.044 86.9733 415.859 88.6066 411.217 88.6066C408.214 85.2039 411.217 79.8957 412.037 74.9958C405.62 58.9351 400.978 35.1162 411.217 21.6415C425.689 30.4885 446.851 15.3805 461.869 23.1387ZM422.14 36.7495C422.14 34.9801 424.188 34.0273 423.778 31.1691C418.726 29.3997 418.453 37.0217 422.14 36.8856V36.7495ZM413.265 51.313C416.815 45.8687 415.04 42.1938 414.904 34.2995H412.446C409.579 40.8327 409.579 48.3187 413.265 51.4492V51.313ZM418.863 64.9238C419.309 62.9914 419.856 61.0833 420.501 59.2073H418.044C417.225 60.2962 417.771 63.9711 418.863 65.1961V64.9238ZM448.899 81.6651C450.81 81.6651 453.814 83.979 455.315 82.4818C456.817 80.9846 450.537 80.8485 448.899 81.6651Z" fill="white" fill-opacity="0.3"/>
<path fill-rule="evenodd" clip-rule="evenodd" d="M538.05 28.0386C534.228 29.2635 532.999 21.2332 528.357 20.8249C527.265 25.3164 524.944 33.619 518.527 35.2523C519.892 29.9441 524.807 28.0386 524.261 20.8249C518.288 18.6343 511.837 18.0723 505.573 19.1968C499.309 20.3213 493.459 23.0916 488.628 27.2219V32.1218C505.278 39.9736 522.321 46.9697 539.689 53.0824C544.194 69.8237 523.306 91.4649 502.417 93.9148C497.746 94.2349 493.067 93.4417 488.764 91.601C482.894 88.7427 475.112 82.754 473.337 76.2208C488.315 74.6373 502.859 70.2505 516.206 63.2905C509.79 47.502 465.965 54.0352 476.614 28.583C480.234 23.6817 484.301 19.1253 488.764 14.9722C494.576 11.2678 501.092 8.79961 507.905 7.72226C514.718 6.64491 521.681 6.9816 528.357 8.71124C535.183 11.7056 537.914 20.5526 543.648 26.4053C542.146 28.0386 536.003 27.2219 538.05 28.0386ZM490.266 39.3355C485.078 39.3355 487.263 32.2579 482.075 34.4356C484.805 35.5245 487.126 40.8327 490.266 39.3355ZM517.571 52.9463C520.835 54.1344 523.771 56.072 526.143 58.6022C528.515 61.1324 530.256 64.1841 531.224 67.5099C532.543 67.0027 533.699 66.147 534.566 65.0346C535.434 63.9222 535.982 62.5951 536.15 61.1958C536.319 59.7966 536.102 58.378 535.522 57.0924C534.943 55.8069 534.024 54.7029 532.862 53.8991C527.947 55.2602 520.985 49.2714 516.889 53.0824L517.571 52.9463ZM491.495 78.943C503.236 83.8428 532.453 82.754 525.627 66.8293C513.844 69.6262 502.4 73.6878 491.495 78.943Z" fill="white" fill-opacity="0.3"/>
<path fill-rule="evenodd" clip-rule="evenodd" d="M77.8203 73.2265C61.9433 84.5568 42.7172 90.259 23.2097 89.4233C22.5271 92.826 26.7594 91.1927 27.9881 92.6899C26.4863 95.8204 29.6264 100.448 28.8073 106.301C25.3941 107.798 23.4827 106.301 21.5714 108.615C19.387 107.117 22.8001 99.9036 18.2947 100.584C16.4516 106.896 16.4516 113.6 18.2947 119.912C16.6564 121.681 14.8816 119.912 14.3355 118.414C11.7415 118.414 14.3355 122.361 11.0588 121.545C6.28042 107.934 11.0588 98.9509 8.60137 86.8373C7.09958 77.3097 -3.00337 70.096 0.955891 57.8463C0.955891 57.8463 3.95947 55.5324 4.096 54.7158C6.82653 43.0105 26.4863 37.1579 45.0539 40.1522C53.8716 41.1752 62.4046 43.9029 70.1748 48.1826C74.4071 52.2658 81.916 66.285 77.8203 73.2265ZM11.4684 56.3491C11.4684 58.3907 14.0624 57.9824 13.9259 60.2962C22.726 54.2166 32.5889 49.8311 43.006 47.366C31.4013 46.8215 15.5642 45.4604 11.4684 56.3491ZM64.1676 69.1432C68.2634 52.402 42.4599 51.7214 30.8552 57.1657C28.8222 63.4239 27.6286 69.9228 27.3055 76.4931C33.4637 79.1874 40.3044 79.9273 46.899 78.6124C53.4935 77.2975 59.5225 73.9916 64.1676 69.1432ZM14.7451 84.5234C14.4217 76.1864 11.2414 68.2119 5.73432 61.9295C2.59421 69.4155 10.6493 78.943 14.7451 84.5234ZM21.1618 70.9126C25.1211 70.9126 22.6636 65.4683 25.2576 64.5156C23.6193 64.5156 24.1654 62.3378 21.981 62.8823C21.1942 64.0253 20.707 65.3466 20.564 66.7255C20.4209 68.1044 20.6264 69.4971 21.1618 70.7765V70.9126Z" fill="white" fill-opacity="0.3"/>
<path fill-rule="evenodd" clip-rule="evenodd" d="M319.335 42.6022C317.834 42.6022 317.697 42.6022 317.697 44.2355C314.011 46.141 314.011 40.8328 308.686 43.4188C307.731 41.5133 308.686 37.8384 307.185 36.069C304.596 35.114 301.812 34.8047 299.076 35.1679C296.339 35.5311 293.734 36.5558 291.486 38.1528C289.238 39.7498 287.415 41.8706 286.178 44.3305C284.94 46.7903 284.324 49.5145 284.385 52.2658C281.791 52.9464 282.746 50.2242 281.245 49.8159C271.824 57.1657 267.592 84.2512 282.883 87.79C290.119 89.4233 293.395 84.7956 302.27 85.3401C304.044 83.0262 306.912 81.9374 308.004 78.943C303.771 70.6404 292.303 71.5932 284.385 70.7765V65.1961C299.949 65.1961 321.247 59.2073 329.848 68.4627C326.708 75.132 319.882 71.3209 313.601 72.4098C327.254 95.6843 290.801 106.165 272.643 104.804C268.504 104.515 264.419 103.691 260.493 102.354C250.663 97.0454 249.707 73.3626 251.618 61.5212C253.782 51.4407 258.48 42.0738 265.271 34.2996C275.784 22.8665 317.014 21.6415 319.335 42.6022ZM257.762 93.3704C268.684 105.62 302.543 97.1815 308.004 87.79C290.392 101.401 254.622 87.79 260.902 67.646C266.169 57.0061 272.144 46.7297 278.787 36.8856C282.2 36.8856 281.791 38.2467 285.204 39.3356C285.204 35.2523 290.528 35.9329 290.119 31.3052C255.441 29.5358 252.847 69.6877 257.762 93.3704Z" fill="white" fill-opacity="0.3"/>
</g>
<defs>
<clipPath id="clip0_467_465">
<rect width="610" height="121" fill="white"/>
</clipPath>
</defs>
</svg>
