<svg width="296" height="143" viewBox="0 0 296 143" fill="none" xmlns="http://www.w3.org/2000/svg">
<g clip-path="url(#clip0_467_556)">
<path fill-rule="evenodd" clip-rule="evenodd" d="M53.0712 83.7202C52.0865 85.5126 50.5058 88.0629 48.4014 88.1616C46.76 87.0063 47.1646 85.037 47.122 83.387C41.6731 82.409 36.0526 83.4886 31.3528 86.416C34.6744 91.1086 31.2586 99.7332 37.1067 103.417C50.5489 102.141 61.2697 107.11 61.1272 122.235C57.4253 130.538 40.8433 138.237 27.8735 139.785C24.0886 140.453 20.1921 139.669 16.9641 137.591C17.2747 137.508 17.3368 137.491 17.2372 137.119C20.0771 134.298 24.4947 136.371 28.3221 135.744C33.7731 134.058 38.8049 131.238 43.0851 127.468C43.3431 123.212 45.1045 118.354 41.4194 115.287C35.5331 110.218 22.1182 115.076 17.4478 107.089C15.714 104.098 16.6561 100.655 17.1258 96.9406C22.836 87.4354 42.5326 72.7204 53.0712 83.7202ZM30.3847 88.2705C28.5275 88.5566 26.8595 89.5674 25.7476 91.0805C24.6358 92.5936 24.1711 94.4851 24.4559 96.3389C24.7407 98.1927 25.7516 99.8569 27.2662 100.965C28.7808 102.074 30.6751 102.536 32.5322 102.25C32.9766 97.9437 30.1606 93.6473 30.3847 88.2705ZM20.0573 106.39C24.1418 111.941 35.3251 108.945 42.8961 112.1C44.6996 112.693 46.3332 113.711 47.6587 115.068C48.9843 116.425 49.9629 118.081 50.5118 119.896C51.552 126.263 42.6762 129.173 39.3074 133.997C46.75 131.205 54.7068 129.339 58.2822 123.795C59.4259 121.286 59.7313 118.478 59.1535 115.784C58.5757 113.091 57.1452 110.655 55.0734 108.837C48.5196 103.017 32.5365 108.23 25.3614 102.576C23.4491 100.432 21.9677 97.9413 20.998 95.2384C19.7708 96.805 19.028 98.6947 18.8609 100.676C18.6938 102.657 19.1096 104.643 20.0573 106.39ZM45.2706 118.974C46.5977 120.944 45.2106 121.981 46.4503 123.376C46.6569 122.656 46.8014 121.953 48.0151 121.761C47.7153 119.648 47.0139 117.776 45.2706 118.974Z" fill="#0035AA" fill-opacity="0.2"/>
<path fill-rule="evenodd" clip-rule="evenodd" d="M168.659 56.3378C166.298 56.9704 166.846 59.0167 164.829 59.6901C164.215 57.3958 162.713 55.2726 160.767 56.4586C160.674 53.6258 158.425 54.4278 156.966 53.9547C152.747 63.0604 156.353 76.5161 161.314 85.0894C162.162 84.8517 162.929 84.3867 163.532 83.7448C164.135 83.103 164.55 82.3087 164.733 81.4483C167.426 82.0558 169.226 78.5829 171.145 80.5276C169.96 86.2948 162.221 90.9606 153.162 93.1884C150.214 91.455 147.443 89.4373 144.889 87.1642C141.52 82.7749 139.6 77.448 139.395 71.9194C139.19 66.3908 140.71 60.9335 143.745 56.3012C148.991 52.7687 155.694 47.716 162.916 49.5691C164.658 52.093 167.691 52.4767 168.659 56.3378ZM148.217 59.8214C143.036 67.3241 143.869 85.8425 155.684 86.1989C156.173 85.5364 156.267 84.647 157.639 84.5455C155.013 76.5766 153.339 68.3253 152.65 59.9629C151.097 60.3791 150.007 59.5413 148.217 59.8214Z" fill="#0035AA" fill-opacity="0.2"/>
<path fill-rule="evenodd" clip-rule="evenodd" d="M207.526 51.0402C202.443 56.9215 194.109 57.6262 185.843 61.5691C185.465 66.1231 189.994 68.3653 188.999 73.3506C195.615 71.9954 201.687 68.7275 206.459 63.9538C207.9 63.8738 209.337 64.1767 210.623 64.8318C210.338 67.4139 209.533 69.9124 208.256 72.1768C206.979 74.4413 205.257 76.425 203.193 78.0086C201.129 79.5923 198.766 80.7431 196.246 81.3919C193.726 82.0407 191.101 82.1741 188.529 81.7841C180.488 76.628 173.568 73.1656 173.257 61.8177C173.409 58.784 174.19 55.8142 175.55 53.0959C176.91 50.3776 178.82 47.97 181.159 46.0253C183.498 44.0806 186.215 42.6412 189.139 41.7979C192.062 40.9546 195.129 40.7259 198.144 41.1261C202.005 43.6536 205.218 47.049 207.526 51.0402ZM182.949 47.7896C185.372 51.8592 182.039 55.0782 185.261 59.3988C188.889 58.0279 192.298 56.5829 195.549 55.0472C195.23 51.1873 195.397 47.3023 196.046 43.4829C191.555 43.6228 185.159 44.6055 182.949 47.7896ZM197.733 51.2718C199.159 51.6209 201.488 52.8577 203.189 51.0062C202.391 48.0298 200.952 45.8899 198.545 45.6045C198.124 47.4691 197.852 49.3642 197.733 51.2718ZM185.011 74.6187C185.735 70.8113 185.217 66.8735 183.532 63.3844C181.73 63.8672 180.931 63.6162 180.424 62.2234C180.6 61.7348 180.91 61.3053 181.318 60.9842C181.727 60.6631 182.218 60.4634 182.735 60.408C181.668 57.4207 180.845 54.3515 180.276 51.2308C172.802 56.8887 174.757 73.3787 185.061 74.8047L185.011 74.6187ZM187.254 77.2742C193.327 82.293 206.231 75.7782 206.511 68.1266C200.278 71.5513 193.847 74.6058 187.254 77.2742Z" fill="#0035AA" fill-opacity="0.2"/>
<path fill-rule="evenodd" clip-rule="evenodd" d="M249.976 20.5922C251.601 15.9699 257.242 13.6609 261.921 10.7456C261.323 8.51334 260.054 7.25822 260.069 5.32681C260.691 5.16033 260.753 5.14369 260.616 4.38294C261.796 4.06664 262.194 4.55812 263.052 4.52773C263.909 4.49734 263.589 8.77008 263.875 9.09218C265.451 10.9961 268.436 9.46499 271.142 9.86987C273.267 9.97985 275.33 10.6142 277.148 11.7162C278.965 12.8182 280.48 14.3533 281.557 16.1841C277.368 21.427 272.884 13.3906 267.091 16.8702C267.198 21.4938 269.102 24.3732 269.465 28.4628C272.842 29.8839 276.658 30.4565 280.239 31.8897C284.985 35.9347 284.337 40.2287 284.649 46.8577C282.732 49.2105 280.479 51.2697 277.963 52.9692C277.044 55.0096 277.701 57.9573 274.831 58.9258C274.129 58.5797 273.565 58.0069 273.23 57.3002C272.896 56.5936 272.811 55.7946 272.989 55.033C267.733 55.5546 262.45 54.3854 257.911 51.6961C257.711 50.952 258.772 50.9336 258.195 50.0247C262.79 49.2816 267.052 47.1664 270.42 43.9577C269.897 40.4365 269.099 36.9617 268.035 33.5645C262.953 33.7812 257.984 32.0444 254.149 28.7119C254.149 28.7119 254.266 29.1459 254.622 28.9841C252.96 28.4988 251.014 23.9694 249.976 20.5922ZM252.276 21.9697C252.782 23.7462 253.782 25.3425 255.161 26.573C256.54 27.8036 258.24 28.6178 260.065 28.9211C256.05 21.8889 261.031 18.361 263.763 14.6384C263.328 14.7549 263.162 14.1348 263.091 13.6221C260.734 14.009 258.513 14.988 256.638 16.467C254.763 17.9461 253.294 19.8766 252.372 22.077L252.276 21.9697ZM265.411 13.3329C265.86 15.0071 269.769 13.6936 269.449 12.2508C267.776 12.9649 266.595 12.2845 265.444 13.4569L265.411 13.3329ZM263.893 28.2943C263.261 25.938 263.487 22.5546 262.115 21.6595C261.771 22.2176 261.544 22.8398 261.449 23.4881C261.354 24.1363 261.392 24.797 261.562 25.4297C261.732 26.0624 262.029 26.6538 262.435 27.1677C262.842 27.6815 263.349 28.1071 263.926 28.4183L263.893 28.2943ZM274.267 40.6675C275.111 38.8463 276.899 37.5695 275.87 34.7218C274.564 34.0746 273.441 33.1129 271.333 33.9436C272.821 35.2728 272.323 40.1248 274.267 40.6675ZM273.718 44.3368C274.317 46.5691 273.771 48.5097 274.262 50.8372C275.132 50.8942 276.004 50.7397 276.803 50.3869C277.601 50.0341 278.302 49.4934 278.846 48.8113C277.988 47.845 277.813 46.6955 279.383 46.3414C280.067 47.1549 278.618 48.2079 280.138 47.6677C283.459 45.648 283.136 40.2183 280.846 35.6481C277.815 38.2545 277.839 42.568 273.718 44.3368ZM264.34 50.8374C266.019 52.3813 268.926 51.8016 271.669 51.5985C270.814 49.9001 272.275 47.6478 270.116 47.2958C268.47 48.8803 266.499 50.0888 264.34 50.8374Z" fill="#0035AA" fill-opacity="0.2"/>
<path fill-rule="evenodd" clip-rule="evenodd" d="M224.934 15.6052L225.99 15.3222C227.55 18.1608 227.469 20.8409 229.012 23.6175C235.191 26.5476 248.118 17.6341 249.451 27.5782C248.783 28.256 247.954 28.7527 247.041 29.0215C245.86 29.3378 246.049 27.5591 244.84 28.0161C239.818 31.8873 236.469 23.6132 231.633 28.4312C231.075 29.5778 232.873 29.827 233.16 31.1458C232.507 33.1817 231.615 37.8069 233.945 40.0405C236.275 42.274 244.398 42.0245 246.667 45.2714C248.059 48.1112 248.431 51.343 247.721 54.4261C246.833 57.3226 243.677 58.9657 239.606 60.9205C239.041 64.5278 241.151 66.6872 242.065 70.0976C241.133 70.3473 241.246 71.5134 240.128 71.8131C239.426 71.5246 238.792 71.0933 238.267 70.5467C237.741 70 237.336 69.35 237.076 68.6381C236.817 67.9261 236.708 67.1678 236.759 66.4115C236.809 65.6552 237.016 64.9174 237.367 64.2452C234.677 61.9089 230.744 65.6212 226.813 65.6112C224.132 65.7977 222.048 64.2297 219.629 65.1436C219.073 64.5614 220.353 63.6204 219.23 63.6554C219.245 61.724 221.78 61.2441 221.07 58.8424C225.668 57.6105 230.864 59.6076 234.292 56.4959C233.096 52.0313 232.531 49.9231 231.135 44.7144C225.475 42.9745 218.794 44.6318 213.631 42.7587C206.527 32.8987 219.222 28.8326 226.54 25.0775C225.211 22.107 224.659 18.8481 224.934 15.6052ZM215.117 41.0978C216.664 41.625 218.324 41.7307 219.927 41.404C218.949 35.0201 226.094 33.1056 227.445 27.9585C221.977 29.4235 209.9 33.0585 215.117 41.0978ZM222.51 39.1167C224.802 39.9674 227.19 40.5329 229.62 40.8004C229.501 37.9702 229.126 35.1568 228.5 32.3944C225.758 33.842 223.631 36.2292 222.51 39.1167ZM238.057 55.8858C239.349 53.7454 235.505 48.5946 239.063 47.7077C241.598 48.2246 240.109 51.6142 241.225 53.0433C243.362 52.072 243.547 50.0286 243.872 48.014C241.025 45.5952 237.438 44.2132 233.699 44.0939C234.523 48.6583 234.82 53.4966 238.057 55.8858Z" fill="#0035AA" fill-opacity="0.2"/>
<path fill-rule="evenodd" clip-rule="evenodd" d="M95.795 71.9404C93.8148 72.0058 93.9773 73.3579 93.1949 74.1657C94.5448 80.5392 95.2366 87.0348 95.2594 93.5505C95.1459 97.1032 93.5037 100.667 93.7797 104.182C94.2375 113.098 87.8656 118.394 77.2178 116.927C72.3194 113.233 68.841 107.972 67.364 102.022C67.5445 97.9583 67.4987 93.8881 67.2269 89.83C65.8632 86.5366 64.6933 83.1664 63.7233 79.7365C65.0309 77.6581 71.2598 75.0587 73.3533 77.1561C74.1913 78.7924 71.7221 78.5236 72.071 79.8258C72.4199 81.128 73.5086 79.9723 73.315 81.4863C72.6937 81.6527 72.594 81.2807 72.097 81.4139C71.6143 84.3345 73.5894 88.7233 72.3815 91.1737C74.0408 94.3844 76.5245 97.4406 78.1593 101.057C79.7941 104.673 79.0319 110.526 83.9169 111.61C86.7005 108.613 88.5667 104.884 89.2949 100.864C85.2103 95.3126 87.2094 86.8683 85.7423 80.1502C85.1109 77.7939 83.6509 75.3273 84.8834 72.4716C88.7275 71.9068 94.1638 67.5924 95.795 71.9404ZM67.4113 81.0744C66.3818 83.9422 68.2146 86.3088 68.8423 89.3972C70.7711 98.5835 68.0488 109.548 77.6014 114.631C78.5955 114.365 81.4671 115.39 81.6398 113.549C79.7659 112.307 78.4098 110.426 77.8247 108.257C74.5703 99.0941 68.7888 89.9432 69.648 80.4751L67.4113 81.0744ZM87.492 76.4913C88.7273 83.3379 87.7411 88.8525 88.6614 95.5178C90.0246 95.8835 89.7696 92.6953 91.8545 94.2634C92.6892 87.9221 92.0554 81.4755 90.0018 75.42C88.614 75.4596 88.7223 76.361 87.492 76.4913ZM86.9959 112.911C87.8903 112.273 89.5432 112.229 88.7341 110.452C87.5414 110.971 87.4178 112.001 86.9959 112.911Z" fill="#0035AA" fill-opacity="0.2"/>
<path fill-rule="evenodd" clip-rule="evenodd" d="M129.142 69.6506C125.894 68.4609 123.222 62.4644 118.568 66.9678C118.609 78.0556 118.371 87.3573 124.024 96.2768C129.591 95.1838 130.492 85.3724 135.37 88.9168C133.419 92.6024 131.237 96.1616 128.836 99.5731C125.546 103.101 121.232 105.512 116.5 106.467C114.219 106.185 112.034 105.383 110.115 104.123C108.195 102.862 106.592 101.178 105.43 99.1989C102.09 91.6636 101.783 83.1316 104.572 75.3703C106.489 72.6507 108.881 70.2985 111.634 68.427C112.843 66.4214 114.492 64.7164 116.458 63.4412C118.424 62.1659 120.654 61.354 122.98 61.067C127.889 60.7485 135.073 66.9317 129.142 69.6506ZM113.198 70.5336C110.242 74.6252 108.875 79.6478 109.35 84.6672C109.826 89.6865 112.111 94.3609 115.781 97.8209C116.612 98.0405 117.481 98.0728 118.325 97.9154C119.17 97.758 119.969 97.415 120.665 96.9111C117.365 87.8263 117.557 78.6033 114.416 70.606C113.819 70.3671 113.757 70.3837 113.198 70.5336ZM116.242 104.011C117.67 103.628 120.404 102.896 120.171 101.031C119.938 99.1662 116.604 101.389 115.361 100.725C111.19 96.7318 108.199 91.6712 106.713 86.0948C106.342 82.4725 108.531 78.9618 108.176 75.4015C99.3471 80.2262 106.337 105.07 116.208 103.887L116.242 104.011Z" fill="#0035AA" fill-opacity="0.2"/>
</g>
<defs>
<clipPath id="clip0_467_556">
<rect width="287" height="71" fill="white" transform="translate(0 74.2812) rotate(-15)"/>
</clipPath>
</defs>
</svg>
