<svg width="36" height="36" viewBox="0 0 36 36" fill="none" xmlns="http://www.w3.org/2000/svg">
<path d="M11.2207 27.5252L15.8707 31.1252C16.4707 31.7252 17.8207 32.0252 18.7207 32.0252H24.4207C26.2207 32.0252 28.1707 30.6752 28.6207 28.8752L32.2207 17.9252C32.9707 15.8252 31.6207 14.0252 29.3707 14.0252H23.3707C22.4707 14.0252 21.7207 13.2752 21.8707 12.2252L22.6207 7.4252C22.9207 6.0752 22.0207 4.5752 20.6707 4.1252C19.4707 3.6752 17.9707 4.2752 17.3707 5.1752L11.2207 14.3252" stroke="#105DE1" stroke-width="1.5" stroke-miterlimit="10"/>
<path d="M3.57031 27.5251V12.8251C3.57031 10.7251 4.47031 9.9751 6.57031 9.9751H8.07031C10.1703 9.9751 11.0703 10.7251 11.0703 12.8251V27.5251C11.0703 29.6251 10.1703 30.3751 8.07031 30.3751H6.57031C4.47031 30.3751 3.57031 29.6251 3.57031 27.5251Z" stroke="#105DE1" stroke-width="1.5" stroke-linecap="round" stroke-linejoin="round"/>
</svg>
