<svg width="16" height="16" viewBox="0 0 16 16" fill="none" xmlns="http://www.w3.org/2000/svg">
<g clip-path="url(#clip0_548_1731)">
<path d="M14.6663 7.99967V11.9997C14.6663 13.4724 13.4724 14.6663 11.9997 14.6663H3.99967C2.52692 14.6663 1.33301 13.4724 1.33301 11.9997V3.99967C1.33301 2.52692 2.52692 1.33301 3.99967 1.33301H7.99967M10.4572 2.68151C10.4572 2.68151 10.4572 3.63504 11.4108 4.58857C12.3643 5.5421 13.3178 5.5421 13.3178 5.5421M6.10279 10.6594L8.10521 10.3733C8.39405 10.3321 8.66171 10.1982 8.86803 9.99191L14.2714 4.58857C14.798 4.06195 14.798 3.20813 14.2714 2.6815L13.3178 1.72797C12.7912 1.20135 11.9374 1.20135 11.4108 1.72797L6.00744 7.13132C5.80112 7.33763 5.66729 7.6053 5.62602 7.89414L5.33996 9.89656C5.2764 10.3415 5.65781 10.723 6.10279 10.6594Z" stroke="#9C9C9C" stroke-linecap="round"/>
</g>
<defs>
<clipPath id="clip0_548_1731">
<rect width="16" height="16" fill="white"/>
</clipPath>
</defs>
</svg>
